<svg width="15" height="15" viewBox="0 0 15 15" fill="none" xmlns="http://www.w3.org/2000/svg">
<g clip-path="url(#clip0_375_17)">
<mask id="mask0_375_17" style="mask-type:luminance" maskUnits="userSpaceOnUse" x="0" y="0" width="15" height="15">
<path d="M14.5 0.5V14.5H0.5V0.5H14.5Z" fill="white" stroke="white"/>
</mask>
<g mask="url(#mask0_375_17)">
<path d="M5.625 13.75H9.375C12.5 13.75 13.75 12.5 13.75 9.375V5.625C13.75 2.5 12.5 1.25 9.375 1.25H5.625C2.5 1.25 1.25 2.5 1.25 5.625V9.375C1.25 12.5 2.5 13.75 5.625 13.75Z" stroke="#202020" stroke-width="1.5" stroke-linecap="round" stroke-linejoin="round"/>
<path d="M7.5 9.6875C8.70812 9.6875 9.6875 8.70812 9.6875 7.5C9.6875 6.29188 8.70812 5.3125 7.5 5.3125C6.29188 5.3125 5.3125 6.29188 5.3125 7.5C5.3125 8.70812 6.29188 9.6875 7.5 9.6875Z" stroke="#202020" stroke-width="1.5" stroke-linecap="round" stroke-linejoin="round"/>
<path d="M11.0225 4.375H11.0292" stroke="#202020" stroke-width="2" stroke-linecap="round" stroke-linejoin="round"/>
</g>
</g>
<defs>
<clipPath id="clip0_375_17">
<rect width="15" height="15" fill="white"/>
</clipPath>
</defs>
</svg>
