<svg width="15" height="15" viewBox="0 0 15 15" fill="none" xmlns="http://www.w3.org/2000/svg">
<path fill-rule="evenodd" clip-rule="evenodd" d="M3 0C1.34314 0 0 1.34314 0 3V12C0 13.6568 1.34314 15 3 15H12C13.6568 15 15 13.6568 15 12V3C15 1.34314 13.6568 0 12 0H3ZM1.5 3C1.5 2.17157 2.17157 1.5 3 1.5H12C12.8285 1.5 13.5 2.17157 13.5 3V12C13.5 12.8285 12.8285 13.5 12 13.5H3C2.17157 13.5 1.5 12.8285 1.5 12V3ZM5.25 6.75C5.25 6.33577 4.91421 6 4.5 6C4.08579 6 3.75 6.33577 3.75 6.75V11.25C3.75 11.6642 4.08579 12 4.5 12C4.91421 12 5.25 11.6642 5.25 11.25V6.75ZM5.625 4.125C5.625 4.74632 5.12132 5.25 4.5 5.25C3.87868 5.25 3.375 4.74632 3.375 4.125C3.375 3.50368 3.87868 3 4.5 3C5.12132 3 5.625 3.50368 5.625 4.125ZM7.5 6C7.75462 6 7.97962 6.1269 8.11522 6.32093C8.49967 6.11265 8.9277 6 9.375 6C10.9945 6 12 7.44435 12 8.67855V8.68425V8.68987V8.69557V8.70127V8.70697V8.71275V8.71845V8.72423V8.73V8.73577V8.74162V8.7474V8.75325V8.7591V8.76495V8.7708V8.77665V8.78258V8.7885V8.79435V8.80035V8.80628V8.8122V8.8182V8.82413V8.83013V8.83612V8.8422V8.8482V8.85427V8.86028V8.86635V8.87243V8.8785V8.88465V8.89072V8.89688V8.90295V8.9091V8.91525V8.92147V8.92762V8.93377V8.94V8.94623V8.95237V8.9586V8.9649V8.97112V8.97735V8.98365V8.98995V8.99617V9.00247V9.00877V9.01507V9.02145V9.02775V9.03412V9.04042V9.0468V9.05317V9.05955V9.06593V9.0723V9.07868V9.08512V9.0915V9.09795V9.1044V9.11085V9.11722V9.12375V9.1302V9.13665V9.1431V9.14962V9.15608V9.1626V9.16905V9.17558V9.1821V9.18863V9.19515V9.20168V9.2082V9.2148V9.22132V9.22792V9.23445V9.24105V9.24757V9.25418V9.26077V9.26737V9.27398V9.28057V9.28718V9.29377V9.30037V9.30697V9.31365V9.32025V9.32693V9.33352V9.3402V9.3468V9.35348V9.36015V9.36683V9.37342V9.3801V9.38678V9.39345V9.40012V9.4068V9.41348V9.42015V9.4269V9.43357V9.44025V9.44692V9.45368V9.46035V9.46702V9.47377V9.48045V9.4872V9.49387V9.50055V9.5073V9.51405V9.52073V9.52748V9.53415V9.5409V9.54765V9.55433V9.56108V9.56775V9.5745V9.58125V9.58792V9.59468V9.60143V9.6081V9.61485V9.6216V9.62835V9.63503V9.64178V9.64853V9.6552V9.66195V9.6687V9.67537V9.68213V9.6888V9.69555V9.70222V9.70897V9.71572V9.7224V9.72915V9.73582V9.7425V9.74925V9.75593V9.76268V9.76935V9.77603V9.7827V9.78945V9.79612V9.8028V9.80947V9.81615V9.82283V9.8295V9.83617V9.84285V9.84953V9.8562V9.8628V9.86947V9.87615V9.88275V9.88943V9.89602V9.9027V9.9093V9.91598V9.92257V9.92918V9.93577V9.94238V9.94897V9.95557V9.96218V9.96877V9.97538V9.9819V9.9885V9.99503V10.0016V10.0082V10.0147V10.0212V10.0277V10.0343V10.0408V10.0473V10.0538V10.0604V10.0668V10.0733V10.0798V10.0862V10.0927V10.0992V10.1056V10.112V10.1185V10.1249V10.1314V10.1378V10.1441V10.1506V10.1569V10.1633V10.1697V10.1761V10.1824V10.1888V10.1951V10.2014V10.2077V10.214V10.2203V10.2266V10.2329V10.2392V10.2455V10.2517V10.2579V10.2641V10.2703V10.2766V10.2828V10.2889V10.2952V10.3013V10.3075V10.3136V10.3198V10.3259V10.332V10.3382V10.3442V10.3503V10.3564V10.3624V10.3685V10.3745V10.3805V10.3865V10.3925V10.3985V10.4045V10.4104V10.4164V10.4224V10.4283V10.4341V10.4401V10.446V10.4518V10.4577V10.4635V10.4694V10.4752V10.481V10.4868V10.4926V10.4984V10.5041V10.5098V10.5156V10.5213V10.527V10.5326V10.5383V10.5439V10.5496V10.5552V10.5608V10.5665V10.572V10.5775V10.5831V10.5886V10.5941V10.5997V10.6052V10.6106V10.616V10.6215V10.6269V10.6323V10.6377V10.6431V10.6484V10.6537V10.6591V10.6644V10.6697V10.6749V10.6802V10.6854V10.6906V10.6958V10.701V10.7062V10.7113V10.7165V10.7215V10.7267V10.7318V10.7368V10.7418V10.7468V10.7519V10.7569V10.7618V10.7668V10.7717V10.7766V10.7815V10.7864V10.7912V10.796V10.8008V10.8056V10.8103V10.8152V10.8199V10.8246V10.8292V10.8339V10.8386V10.8432V10.8479V10.8524V10.857V10.8615V10.8661V10.8706V10.875V10.8795V10.8839V10.8883V10.8928V10.8971V10.9015V10.9058V10.9101V10.9144V10.9187V10.9229V10.9271V10.9313V10.9355V10.9397V10.9438V10.9479V10.952V10.9561V10.96V10.9641V10.9681V10.972V10.976V10.9799V10.9838V10.9877V10.9915V10.9954V10.9992V11.003V11.0067V11.0104V11.0141V11.0178V11.0215V11.0251V11.0287V11.0323V11.0358V11.0393V11.0429V11.0463V11.0497V11.0532V11.0566V11.0599V11.0633V11.0666V11.0699V11.0732V11.0765V11.0797V11.0828V11.086V11.0891V11.0923V11.0954V11.0984V11.1014V11.1044V11.1073V11.1104V11.1133V11.1161V11.119V11.1218V11.1246V11.1274V11.1301V11.1328V11.1356V11.1383V11.1409V11.1435V11.1461V11.1486V11.1511V11.1536V11.1561V11.1585V11.1609V11.1633V11.1656V11.1679V11.1702V11.1725V11.1747V11.1769V11.179V11.1812V11.1833V11.1853V11.1874V11.1894V11.1914V11.1934V11.1952V11.1971V11.199V11.2008V11.2026V11.2044V11.2061V11.2078V11.2095V11.2111V11.2127V11.2143V11.2158V11.2173V11.2188V11.2202V11.2217V11.223V11.2243V11.2257V11.227V11.2282V11.2294V11.2306V11.2317V11.2328V11.2339V11.2349V11.236V11.2379V11.2397V11.2413V11.2435V11.2448V11.246V11.2478V11.2497C12 11.6639 11.6642 12 11.25 12C10.8358 12 10.5 11.6642 10.5 11.25V11.2482V11.2465V11.2453V11.2442V11.2428V11.2413V11.2397V11.2379V11.236V11.2349V11.2339V11.2328V11.2317V11.2306V11.2294V11.2282V11.227V11.2257V11.2243V11.223V11.2217V11.2202V11.2188V11.2173V11.2158V11.2143V11.2127V11.2111V11.2095V11.2078V11.2061V11.2044V11.2026V11.2008V11.199V11.1971V11.1952V11.1934V11.1914V11.1894V11.1874V11.1853V11.1833V11.1812V11.179V11.1769V11.1747V11.1725V11.1702V11.1679V11.1656V11.1633V11.1609V11.1585V11.1561V11.1536V11.1511V11.1486V11.1461V11.1435V11.1409V11.1383V11.1356V11.1328V11.1301V11.1274V11.1246V11.1218V11.119V11.1161V11.1133V11.1104V11.1073V11.1044V11.1014V11.0984V11.0954V11.0923V11.0891V11.086V11.0828V11.0797V11.0765V11.0732V11.0699V11.0666V11.0633V11.0599V11.0566V11.0532V11.0497V11.0463V11.0429V11.0393V11.0358V11.0323V11.0287V11.0251V11.0215V11.0178V11.0141V11.0104V11.0067V11.003V10.9992V10.9954V10.9915V10.9877V10.9838V10.9799V10.976V10.972V10.9681V10.9641V10.96V10.9561V10.952V10.9479V10.9438V10.9397V10.9355V10.9313V10.9271V10.9229V10.9187V10.9144V10.9101V10.9058V10.9015V10.8971V10.8928V10.8883V10.8839V10.8795V10.875V10.8706V10.8661V10.8615V10.857V10.8524V10.8479V10.8432V10.8386V10.8339V10.8292V10.8246V10.8199V10.8152V10.8103V10.8056V10.8008V10.796V10.7912V10.7864V10.7815V10.7766V10.7717V10.7668V10.7618V10.7569V10.7519V10.7468V10.7418V10.7368V10.7318V10.7267V10.7215V10.7165V10.7113V10.7062V10.701V10.6958V10.6906V10.6854V10.6802V10.6749V10.6697V10.6644V10.6591V10.6537V10.6484V10.6431V10.6377V10.6323V10.6269V10.6215V10.616V10.6106V10.6052V10.5997V10.5941V10.5886V10.5831V10.5775V10.572V10.5665V10.5608V10.5552V10.5496V10.5439V10.5383V10.5326V10.527V10.5213V10.5156V10.5098V10.5041V10.4984V10.4926V10.4868V10.481V10.4752V10.4694V10.4635V10.4577V10.4518V10.446V10.4401V10.4341V10.4283V10.4224V10.4164V10.4104V10.4045V10.3985V10.3925V10.3865V10.3805V10.3745V10.3685V10.3624V10.3564V10.3503V10.3442V10.3382V10.332V10.3259V10.3198V10.3136V10.3075V10.3013V10.2952V10.2889V10.2828V10.2766V10.2703V10.2641V10.2579V10.2517V10.2455V10.2392V10.2329V10.2266V10.2203V10.214V10.2077V10.2014V10.1951V10.1888V10.1824V10.1761V10.1697V10.1633V10.1569V10.1506V10.1441V10.1378V10.1314V10.1249V10.1185V10.112V10.1056V10.0992V10.0927V10.0862V10.0798V10.0733V10.0668V10.0604V10.0538V10.0473V10.0408V10.0343V10.0277V10.0212V10.0147V10.0082V10.0016V9.99503V9.9885V9.9819V9.97538V9.96877V9.96218V9.95557V9.94897V9.94238V9.93577V9.92918V9.92257V9.91598V9.9093V9.9027V9.89602V9.88943V9.88275V9.87615V9.86947V9.8628V9.8562V9.84953V9.84285V9.83617V9.8295V9.82283V9.81615V9.80947V9.8028V9.79612V9.78945V9.7827V9.77603V9.76935V9.76268V9.75593V9.74925V9.7425V9.73582V9.72915V9.7224V9.71572V9.70897V9.70222V9.69555V9.6888V9.68213V9.67537V9.6687V9.66195V9.6552V9.64853V9.64178V9.63503V9.62835V9.6216V9.61485V9.6081V9.60143V9.59468V9.58792V9.58125V9.5745V9.56775V9.56108V9.55433V9.54765V9.5409V9.53415V9.52748V9.52073V9.51405V9.5073V9.50055V9.49387V9.4872V9.48045V9.47377V9.46702V9.46035V9.45368V9.44692V9.44025V9.43357V9.4269V9.42015V9.41348V9.4068V9.40012V9.39345V9.38678V9.3801V9.37342V9.36683V9.36015V9.35348V9.3468V9.3402V9.33352V9.32693V9.32025V9.31365V9.30697V9.30037V9.29377V9.28718V9.28057V9.27398V9.26737V9.26077V9.25418V9.24757V9.24105V9.23445V9.22792V9.22132V9.2148V9.2082V9.20168V9.19515V9.18863V9.1821V9.17558V9.16905V9.1626V9.15608V9.14962V9.1431V9.13665V9.1302V9.12375V9.11722V9.11085V9.1044V9.09795V9.0915V9.08512V9.07868V9.0723V9.06593V9.05955V9.05317V9.0468V9.04042V9.03412V9.02775V9.02145V9.01507V9.00877V9.00247V8.99617V8.98995V8.98365V8.97735V8.97112V8.9649V8.9586V8.95237V8.94623V8.94V8.93377V8.92762V8.92147V8.91525V8.9091V8.90295V8.89688V8.89072V8.88465V8.8785V8.87243V8.86635V8.86028V8.85427V8.8482V8.8422V8.83612V8.83013V8.82413V8.8182V8.8122V8.80628V8.80035V8.79435V8.7885V8.78258V8.77665V8.7708V8.76495V8.7591V8.75325V8.7474V8.74162V8.73577V8.73V8.72423V8.71845V8.71275V8.70697V8.70127V8.69557V8.68987V8.68425V8.67855C10.5 8.1024 10.0055 7.5 9.375 7.5C8.98193 7.5 8.54805 7.71368 8.25 8.22233V8.22435V8.23207V8.2398V8.24753V8.25533V8.26305V8.27085V8.27865V8.28653V8.29432V8.30212V8.31V8.31787V8.32575V8.33362V8.3415V8.34945V8.3574V8.36527V8.37323V8.38118V8.38912V8.39715V8.4051V8.41313V8.42115V8.4291V8.4372V8.44522V8.45325V8.46128V8.46937V8.47748V8.4855V8.4936V8.5017V8.5098V8.51797V8.52608V8.53425V8.54235V8.55052V8.5587V8.56687V8.57505V8.58323V8.5914V8.59965V8.60783V8.61608V8.62425V8.6325V8.64075V8.649V8.65725V8.6655V8.67375V8.68208V8.69032V8.69858V8.7069V8.71523V8.72347V8.7318V8.74012V8.74845V8.75677V8.7651V8.77343V8.78175V8.79015V8.79848V8.8068V8.8152V8.82352V8.83192V8.84032V8.84865V8.85705V8.86545V8.87385V8.88218V8.89058V8.89898V8.90738V8.91585V8.92425V8.93265V8.94105V8.94945V8.95785V8.96632V8.97472V8.98312V8.9916V9V9.00848V9.01688V9.02535V9.03375V9.04215V9.05062V9.0591V9.0675V9.07598V9.08438V9.09285V9.10125V9.10972V9.1182V9.1266V9.13508V9.14348V9.15195V9.16043V9.16883V9.1773V9.1857V9.19417V9.20257V9.21105V9.21945V9.22792V9.23632V9.2448V9.2532V9.26167V9.27007V9.27855V9.28695V9.29535V9.30375V9.31223V9.32063V9.32903V9.33743V9.34583V9.35423V9.36263V9.37103V9.37943V9.38783V9.39622V9.40462V9.41295V9.42135V9.42975V9.43808V9.44648V9.4548V9.4632V9.47153V9.47985V9.48817V9.4965V9.5049V9.51323V9.52147V9.5298V9.53813V9.54645V9.5547V9.56302V9.57127V9.5796V9.58785V9.5961V9.60435V9.6126V9.62085V9.6291V9.63735V9.64552V9.65378V9.66195V9.6702V9.67838V9.68655V9.69473V9.7029V9.71107V9.71918V9.72735V9.73545V9.74362V9.75173V9.75982V9.76793V9.77603V9.78412V9.79215V9.80025V9.80828V9.8163V9.82433V9.83235V9.84037V9.8484V9.85643V9.86438V9.87232V9.88028V9.88823V9.89617V9.90413V9.91208V9.91995V9.92782V9.9357V9.94357V9.95145V9.95933V9.96712V9.97493V9.9828V9.9906V9.99833V10.0061V10.0139V10.0217V10.0294V10.0371V10.0448V10.0525V10.0602V10.0679V10.0755V10.0831V10.0908V10.0984V10.106V10.1136V10.1212V10.1287V10.1363V10.1437V10.1512V10.1588V10.1663V10.1737V10.1812V10.1886V10.196V10.2035V10.2108V10.2182V10.2256V10.2329V10.2402V10.2476V10.2548V10.2621V10.2694V10.2766V10.2838V10.291V10.2983V10.3054V10.3126V10.3197V10.3268V10.334V10.341V10.3481V10.3551V10.3622V10.3692V10.3762V10.3832V10.39V10.397V10.4039V10.4108V10.4177V10.4246V10.4314V10.4383V10.445V10.4518V10.4586V10.4654V10.472V10.4788V10.4855V10.4921V10.4987V10.5053V10.5119V10.5185V10.525V10.5316V10.5381V10.5446V10.5511V10.5575V10.564V10.5703V10.5767V10.5831V10.5895V10.5958V10.6021V10.6083V10.6145V10.6207V10.627V10.6332V10.6394V10.6454V10.6516V10.6576V10.6637V10.6697V10.6757V10.6817V10.6877V10.6936V10.6996V10.7054V10.7113V10.7171V10.723V10.7288V10.7345V10.7402V10.746V10.7517V10.7573V10.7629V10.7686V10.7742V10.7797V10.7852V10.7908V10.7963V10.8017V10.8071V10.8125V10.8179V10.8232V10.8286V10.8338V10.8391V10.8443V10.8496V10.8547V10.8599V10.865V10.8701V10.8752V10.8802V10.8853V10.8902V10.8952V10.9001V10.905V10.9099V10.9147V10.9195V10.9243V10.9291V10.9337V10.9384V10.9431V10.9478V10.9523V10.9569V10.9615V10.966V10.9704V10.9749V10.9793V10.9837V10.988V10.9924V10.9967V11.0009V11.0051V11.0093V11.0135V11.0177V11.0217V11.0258V11.0298V11.0338V11.0378V11.0417V11.0456V11.0495V11.0534V11.0572V11.0609V11.0647V11.0683V11.072V11.0757V11.0793V11.0829V11.0864V11.0899V11.0934V11.0968V11.1002V11.1036V11.1069V11.1102V11.1134V11.1167V11.1199V11.123V11.1261V11.1293V11.1322V11.1353V11.1383V11.1412V11.1441V11.1469V11.1498V11.1526V11.1553V11.158V11.1608V11.1634V11.166V11.1685V11.1711V11.1736V11.1761V11.1784V11.1809V11.1832V11.1855V11.1877V11.19V11.1922V11.1944V11.1965V11.1985V11.2006V11.2025V11.2045V11.2064V11.2083V11.2101V11.2119V11.2137V11.2154V11.2171V11.2187V11.2203V11.2219V11.2234V11.2249V11.2263V11.2277V11.2291V11.2304V11.2316V11.2328V11.234V11.2352V11.2363V11.2373V11.2384V11.2403V11.2421V11.2436V11.2451V11.2463V11.2473V11.2492C8.25 11.6634 7.91423 12 7.5 12C7.08577 12 6.75 11.6642 6.75 11.25V11.2482V11.2463V11.2451V11.2436V11.2421V11.2403V11.2384V11.2373V11.2363V11.2352V11.234V11.2328V11.2316V11.2304V11.2291V11.2277V11.2263V11.2249V11.2234V11.2219V11.2203V11.2187V11.2171V11.2154V11.2137V11.2119V11.2101V11.2083V11.2064V11.2045V11.2025V11.2006V11.1985V11.1965V11.1944V11.1922V11.19V11.1877V11.1855V11.1832V11.1809V11.1784V11.1761V11.1736V11.1711V11.1685V11.166V11.1634V11.1608V11.158V11.1553V11.1526V11.1498V11.1469V11.1441V11.1412V11.1383V11.1353V11.1322V11.1293V11.1261V11.123V11.1199V11.1167V11.1134V11.1102V11.1069V11.1036V11.1002V11.0968V11.0934V11.0899V11.0864V11.0829V11.0793V11.0757V11.072V11.0683V11.0647V11.0609V11.0572V11.0534V11.0495V11.0456V11.0417V11.0378V11.0338V11.0298V11.0258V11.0217V11.0177V11.0135V11.0093V11.0051V11.0009V10.9967V10.9924V10.988V10.9837V10.9793V10.9749V10.9704V10.966V10.9615V10.9569V10.9523V10.9478V10.9431V10.9384V10.9337V10.9291V10.9243V10.9195V10.9147V10.9099V10.905V10.9001V10.8952V10.8902V10.8853V10.8802V10.8752V10.8701V10.865V10.8599V10.8547V10.8496V10.8443V10.8391V10.8338V10.8286V10.8232V10.8179V10.8125V10.8071V10.8017V10.7963V10.7908V10.7852V10.7797V10.7742V10.7686V10.7629V10.7573V10.7517V10.746V10.7402V10.7345V10.7288V10.723V10.7171V10.7113V10.7054V10.6996V10.6936V10.6877V10.6817V10.6757V10.6697V10.6637V10.6576V10.6516V10.6454V10.6394V10.6332V10.627V10.6207V10.6145V10.6083V10.6021V10.5958V10.5895V10.5831V10.5767V10.5703V10.564V10.5575V10.5511V10.5446V10.5381V10.5316V10.525V10.5185V10.5119V10.5053V10.4987V10.4921V10.4855V10.4788V10.472V10.4654V10.4586V10.4518V10.445V10.4383V10.4314V10.4246V10.4177V10.4108V10.4039V10.397V10.39V10.3832V10.3762V10.3692V10.3622V10.3551V10.3481V10.341V10.334V10.3268V10.3197V10.3126V10.3054V10.2983V10.291V10.2838V10.2766V10.2694V10.2621V10.2548V10.2476V10.2402V10.2329V10.2256V10.2182V10.2108V10.2035V10.196V10.1886V10.1812V10.1737V10.1663V10.1588V10.1512V10.1437V10.1363V10.1287V10.1212V10.1136V10.106V10.0984V10.0908V10.0831V10.0755V10.0679V10.0602V10.0525V10.0448V10.0371V10.0294V10.0217V10.0139V10.0061V9.99833V9.9906V9.9828V9.97493V9.96712V9.95933V9.95145V9.94357V9.9357V9.92782V9.91995V9.91208V9.90413V9.89617V9.88823V9.88028V9.87232V9.86438V9.85643V9.8484V9.84037V9.83235V9.82433V9.8163V9.80828V9.80025V9.79215V9.78412V9.77603V9.76793V9.75982V9.75173V9.74362V9.73545V9.72735V9.71918V9.71107V9.7029V9.69473V9.68655V9.67838V9.6702V9.66195V9.65378V9.64552V9.63735V9.6291V9.62085V9.6126V9.60435V9.5961V9.58785V9.5796V9.57127V9.56302V9.5547V9.54645V9.53813V9.5298V9.52147V9.51323V9.5049V9.4965V9.48817V9.47985V9.47153V9.4632V9.4548V9.44648V9.43808V9.42975V9.42135V9.41295V9.40462V9.39622V9.38783V9.37943V9.37103V9.36263V9.35423V9.34583V9.33743V9.32903V9.32063V9.31223V9.30375V9.29535V9.28695V9.27855V9.27007V9.26167V9.2532V9.2448V9.23632V9.22792V9.21945V9.21105V9.20257V9.19417V9.1857V9.1773V9.16883V9.16043V9.15195V9.14348V9.13508V9.1266V9.1182V9.10972V9.10125V9.09285V9.08438V9.07598V9.0675V9.0591V9.05062V9.04215V9.03375V9.02535V9.01688V9.00848V9V8.9916V8.98312V8.97472V8.96632V8.95785V8.94945V8.94105V8.93265V8.92425V8.91585V8.90738V8.89898V8.89058V8.88218V8.87385V8.86545V8.85705V8.84865V8.84032V8.83192V8.82352V8.8152V8.8068V8.79848V8.79015V8.78175V8.77343V8.7651V8.75677V8.74845V8.74012V8.7318V8.72347V8.71523V8.7069V8.69858V8.69032V8.68208V8.67375V8.6655V8.65725V8.649V8.64075V8.6325V8.62425V8.61608V8.60783V8.59965V8.5914V8.58323V8.57505V8.56687V8.5587V8.55052V8.54235V8.53425V8.52608V8.51797V8.5098V8.5017V8.4936V8.4855V8.47748V8.46937V8.46128V8.45325V8.44522V8.4372V8.4291V8.42115V8.41313V8.4051V8.39715V8.38912V8.38118V8.37323V8.36527V8.3574V8.34945V8.3415V8.33362V8.32575V8.31787V8.31V8.30212V8.29432V8.28653V8.27865V8.27085V8.26305V8.25533V8.24753V8.2398V8.23207V8.22435V8.21663V8.2089V8.20118V8.19353V8.18587V8.17822V8.17058V8.163V8.15535V8.14777V8.1402V8.13263V8.12512V8.11755V8.11005V8.10255V8.09505V8.08755V8.08013V8.0727V8.06528V8.05785V8.05042V8.04308V8.03572V8.0328V8.0298V8.02688V8.02387V8.02095V8.01795V8.01495V8.01195V8.00895V8.00595V8.00295V7.99995V7.99695V7.99395V7.99088V7.98787V7.9848V7.98172V7.97872V7.97565V7.97258V7.9695V7.96642V7.96335V7.96027V7.9572V7.95413V7.95098V7.9479V7.94475V7.94167V7.93852V7.93537V7.9323V7.92915V7.926V7.92285V7.9197V7.91655V7.9134V7.91025V7.90702V7.90387V7.90072V7.8975V7.89435V7.89112V7.88797V7.88475V7.88153V7.87838V7.87515V7.87193V7.8687V7.86547V7.86225V7.85903V7.8558V7.85258V7.84928V7.84605V7.84282V7.8396V7.8363V7.83308V7.82977V7.82655V7.82325V7.81995V7.81673V7.81343V7.81012V7.8069V7.8036V7.8003V7.797V7.7937V7.7904V7.7871V7.7838V7.7805V7.7772V7.7739V7.77052V7.76723V7.76393V7.76062V7.75725V7.75395V7.75065V7.74728V7.74398V7.7406V7.7373V7.73392V7.73063V7.72725V7.72395V7.72057V7.7172V7.7139V7.71052V7.70715V7.70385V7.70047V7.6971V7.69372V7.69042V7.68705V7.68367V7.6803V7.67692V7.67355V7.67025V7.66687V7.6635V7.66012V7.65675V7.65338V7.65V7.64663V7.64325V7.63987V7.6365V7.63312V7.62975V7.62638V7.623V7.61963V7.61625V7.61287V7.6095V7.60613V7.60275V7.59937V7.596V7.59262V7.58925V7.58588V7.5825V7.57913V7.57568V7.5723V7.56892V7.56555V7.56217V7.5588V7.55543V7.55205V7.54868V7.5453V7.542V7.53863V7.53525V7.53187V7.5285V7.52512V7.52175V7.51837V7.515V7.51163V7.50832V7.50495V7.50157V7.4982V7.4949V7.49152V7.48815V7.48478V7.48147V7.4781V7.47472V7.47143V7.46805V7.46475V7.46137V7.45808V7.4547V7.4514V7.44803V7.44473V7.44142V7.43805V7.43475V7.43145V7.42808V7.42478V7.42147V7.41817V7.41488V7.41158V7.40827V7.40497V7.40168V7.39838V7.39507V7.39177V7.38848V7.38525V7.38195V7.37865V7.37535V7.37213V7.36882V7.3656V7.3623V7.35908V7.35577V7.35255V7.34933V7.3461V7.3428V7.33958V7.33635V7.33313V7.3299V7.32667V7.32345V7.32022V7.31707V7.31385V7.31063V7.30748V7.30425V7.30103V7.29788V7.29473V7.2915V7.28835V7.2852V7.28205V7.2789V7.27567V7.27252V7.26945V7.2663V7.26315V7.26V7.25693V7.25377V7.25062V7.24755V7.24447V7.24132V7.23825V7.23518V7.2321V7.22902V7.22595V7.22287V7.2198V7.21673V7.21373V7.21065V7.20757V7.20458V7.20158V7.1985V7.1955V7.1925V7.1895V7.1865V7.1835V7.1805V7.1775V7.17457V7.17158V7.16865V7.16565V7.16272V7.1598V7.1568V7.15387V7.15095V7.1481V7.14517V7.14225V7.13933V7.13647V7.13355V7.1307V7.12785V7.125V7.12215V7.1193V7.11645V7.1136V7.11075V7.10798V7.10513V7.10235V7.09958V7.09673V7.09395V7.09118V7.0884V7.0857V7.08292V7.08015V7.07745V7.07468V7.07198V7.06927V7.06658V7.06388V7.06117V7.05847V7.05585V7.05315V7.05052V7.04783V7.0452V7.04257V7.03995V7.03732V7.03477V7.03215V7.0296V7.02697V7.02443V7.02188V7.01933V7.01677V7.01423V7.01167V7.0092V7.00665V7.00417V7.0017V6.99923V6.99675V6.99428V6.9918V6.9894V6.98693V6.98453V6.98212V6.97972V6.97732V6.97493V6.97252V6.9702V6.9678V6.96548V6.96315V6.96082V6.9585V6.95618V6.95393V6.9516V6.94935V6.9471V6.94485V6.9426V6.94035V6.9381V6.93593V6.93367V6.9315V6.92933V6.92715V6.92498V6.92288V6.9207V6.9186V6.91642V6.91432V6.91222V6.9102V6.9081V6.90608V6.90398V6.90195V6.89992V6.8979V6.89587V6.89393V6.8919V6.88995V6.888V6.88605V6.8841V6.88223V6.88028V6.8784V6.87652V6.87465V6.87278V6.8709V6.8691V6.86722V6.86543V6.86362V6.86182V6.86002V6.8583V6.8565V6.85477V6.85305V6.85133V6.84968V6.84795V6.8463V6.84457V6.84293V6.84128V6.8397V6.83805V6.83648V6.8349V6.83333V6.83175V6.83018V6.82868V6.8271V6.8256V6.8241V6.82267V6.82118V6.81975V6.81825V6.81682V6.81548V6.81405V6.81262V6.81128V6.80993V6.80858V6.80722V6.80595V6.8046V6.80333V6.80205V6.80078V6.79957V6.7983V6.7971V6.7959V6.7947V6.7935V6.79238V6.79125V6.79012V6.789V6.78788V6.78675V6.7857V6.78465V6.7836V6.78255V6.7806V6.77955V6.77767V6.7758V6.774V6.77227V6.77063V6.76898V6.7674V6.76522V6.76388V6.76252V6.76125V6.76005V6.75892V6.75787V6.75682V6.75502V6.7539V6.75225V6.7506C6.75 6.33637 7.08577 6 7.5 6Z" fill="#202020"/>
</svg>
