<svg width="17" height="17" viewBox="0 0 17 17" fill="none" xmlns="http://www.w3.org/2000/svg">
<path id="add " d="M8.23585 0C3.6979 0 0 3.61694 0 8.05556C0 12.4942 3.6979 16.1111 8.23585 16.1111C12.7738 16.1111 16.4717 12.4942 16.4717 8.05556C16.4717 3.61694 12.7738 0 8.23585 0ZM11.5302 8.65972H8.85354V11.2778C8.85354 11.6081 8.57352 11.8819 8.23585 11.8819C7.89818 11.8819 7.61816 11.6081 7.61816 11.2778V8.65972H4.94151C4.60384 8.65972 4.32382 8.38583 4.32382 8.05556C4.32382 7.72528 4.60384 7.45139 4.94151 7.45139H7.61816V4.83333C7.61816 4.50306 7.89818 4.22917 8.23585 4.22917C8.57352 4.22917 8.85354 4.50306 8.85354 4.83333V7.45139H11.5302C11.8679 7.45139 12.1479 7.72528 12.1479 8.05556C12.1479 8.38583 11.8679 8.65972 11.5302 8.65972Z" fill="#4F3E83"/>
</svg>
