<svg width="20" height="20" viewBox="0 0 20 20" fill="none" xmlns="http://www.w3.org/2000/svg">
<g id="arrow-down">
<path id="Vector" d="M10.0001 18.9584C5.05841 18.9584 1.04175 14.9417 1.04175 10.0001C1.04175 5.05841 5.05841 1.04175 10.0001 1.04175C14.9417 1.04175 18.9584 5.05841 18.9584 10.0001C18.9584 14.9417 14.9417 18.9584 10.0001 18.9584ZM10.0001 2.29175C5.75008 2.29175 2.29175 5.75008 2.29175 10.0001C2.29175 14.2501 5.75008 17.7084 10.0001 17.7084C14.2501 17.7084 17.7084 14.2501 17.7084 10.0001C17.7084 5.75008 14.2501 2.29175 10.0001 2.29175Z" fill="#816A72"/>
<path id="Vector_2" d="M10 12.7083C9.65833 12.7083 9.375 12.4249 9.375 12.0833V7.08325C9.375 6.74159 9.65833 6.45825 10 6.45825C10.3417 6.45825 10.625 6.74159 10.625 7.08325V12.0833C10.625 12.4249 10.3417 12.7083 10 12.7083Z" fill="#816A72"/>
<path id="Vector_3" d="M9.99984 13.5421C9.8415 13.5421 9.68317 13.4838 9.55817 13.3588L7.0582 10.8588C6.81654 10.6171 6.81654 10.2171 7.0582 9.97544C7.29987 9.73377 7.69987 9.73377 7.94154 9.97544L9.99984 12.0338L12.0582 9.97544C12.2998 9.73377 12.6998 9.73377 12.9415 9.97544C13.1832 10.2171 13.1832 10.6171 12.9415 10.8588L10.4415 13.3588C10.3165 13.4838 10.1582 13.5421 9.99984 13.5421Z" fill="#816A72"/>
</g>
</svg>
