<svg width="37" height="35" viewBox="0 0 37 35" fill="none" xmlns="http://www.w3.org/2000/svg">
<g id="brand trust" clip-path="url(#clip0_253_8819)">
<path id="Vector" d="M17.9889 0.000820559C18.5825 0.000820559 19.1671 0.0391247 19.7109 0.129252C20.2464 0.199039 20.7748 0.315143 21.2901 0.476243C21.8067 0.631713 22.3119 0.825487 22.8172 1.06883C23.3088 1.30091 23.8141 1.58481 24.3194 1.8935C25.1735 2.43426 26.0141 2.87138 26.8706 3.22063C28.5566 3.8917 30.3395 4.29102 32.152 4.40355C33.0719 4.46889 34.0167 4.5072 35 4.5072V13.5199C35 15.2324 34.7802 16.8547 34.3407 18.4004C33.9184 19.924 33.3185 21.3933 32.553 22.7783C31.7908 24.1614 30.8889 25.4637 29.8613 26.665C28.818 27.8937 27.6884 29.0472 26.4809 30.1169C25.2574 31.1898 23.9688 32.1868 22.6223 33.1024C21.2765 34.0307 19.9171 34.8937 18.5576 35.6778L18.0138 36L17.4701 35.6778C16.0726 34.8732 14.7075 34.0141 13.3782 33.1024C12.0242 32.1971 10.7349 31.1996 9.51964 30.1169C8.31288 29.0472 7.18398 27.8937 6.14144 26.665C5.11663 25.4586 4.21072 24.157 3.43616 22.7783C2.68378 21.3871 2.08443 19.9193 1.6485 18.4004C1.20616 16.8113 0.988076 15.1687 1.0005 13.5199V4.5072C1.98609 4.5072 2.9309 4.46889 3.85079 4.40355C4.75631 4.341 5.65597 4.21222 6.54247 4.01825C7.41024 3.82448 8.27802 3.56762 9.1322 3.22063C10.0186 2.86488 10.8684 2.42498 11.6698 1.90702C12.6667 1.26261 13.6772 0.787183 14.6742 0.47399C15.7478 0.146673 16.866 -0.0129498 17.9889 0.000820559ZM32.7207 6.72208C31.0056 6.63932 29.3065 6.35417 27.659 5.87263C26.0203 5.38651 24.4595 4.6711 23.0234 3.74787C22.2785 3.26163 21.4695 2.88022 20.6194 2.61452C19.7703 2.35931 18.8873 2.23321 18.0003 2.24049C17.1066 2.23474 16.2171 2.36079 15.3607 2.61452C14.5094 2.87159 13.7014 3.25358 12.9635 3.74787C11.5249 4.67613 9.96004 5.39469 8.31653 5.88164C6.71013 6.3458 5.02896 6.6297 3.26623 6.73335V13.5312C3.26623 15.0251 3.46108 16.4536 3.85079 17.8303C4.2478 19.195 4.79488 20.5121 5.48211 21.7576C6.17757 23.0161 6.99728 24.2026 7.9291 25.2996C8.8739 26.4059 9.88215 27.4356 10.9697 28.4135C12.0572 29.3937 13.1969 30.2949 14.3887 31.1309C15.5918 31.969 16.7972 32.7284 18.0003 33.4224C19.2322 32.7091 20.4333 31.9446 21.6005 31.1309C22.8001 30.2976 23.9458 29.39 25.0308 28.4135C26.1184 27.4356 27.1289 26.4059 28.0737 25.2996C29.0056 24.2027 29.8253 23.0162 30.5207 21.7576C31.2048 20.5136 31.7438 19.196 32.1271 17.8303C32.5286 16.4324 32.7285 14.985 32.7207 13.5312V6.72208Z" fill="#4F3E83"/>
<path id="Vector_2" fill-rule="evenodd" clip-rule="evenodd" d="M27.2805 10.301L26.263 9.47412L25.3242 9.55068L15.2417 20.8119L11.8076 16.1744L10.8826 16.0257L9.81191 16.7497L9.65234 17.6247L14.0669 23.5879L14.5687 23.8504L15.6255 23.9116L16.1667 23.6885L27.3476 11.1869L27.2805 10.301Z" fill="#4F3E83"/>
</g>
<defs>
<clipPath id="clip0_253_8819">
<rect width="37" height="35" fill="white"/>
</clipPath>
</defs>
</svg>
