<svg width="14" height="13" viewBox="0 0 14 13" fill="none" xmlns="http://www.w3.org/2000/svg">
<g id="call svg">
<g id="ring">
<path id="Vector" opacity="0.4" d="M11 6C11 5.48571 10.5971 4.69714 9.99714 4.05429C9.44857 3.46286 8.72 3 8 3" fill="white"/>
<path id="Vector_2" opacity="0.4" d="M14 5C14 2.23571 11.7643 0 9 0Z" fill="white"/>
</g>
<g id="call">
<path id="Vector_3" d="M11.6898 10.8518C11.6898 11.0625 11.6429 11.2791 11.5434 11.4898C11.4439 11.7005 11.3151 11.8995 11.1454 12.0869C10.8585 12.4029 10.5424 12.6312 10.1854 12.7776C9.83415 12.9239 9.45366 13 9.0439 13C8.44683 13 7.80878 12.8595 7.13561 12.5727C6.46244 12.2859 5.78927 11.8995 5.12195 11.4137C4.44878 10.922 3.81073 10.3776 3.20195 9.7747C2.59902 9.16593 2.05463 8.52789 1.56878 7.86059C1.08878 7.19328 0.702439 6.52598 0.421463 5.86453C0.140488 5.19722 0 4.55919 0 3.95042C0 3.55238 0.0702438 3.1719 0.210732 2.82068C0.351219 2.46362 0.573659 2.13582 0.883902 1.84314C1.25854 1.47437 1.66829 1.29291 2.10146 1.29291C2.26537 1.29291 2.42927 1.32803 2.57561 1.39827C2.7278 1.46851 2.86244 1.57388 2.9678 1.72607L4.32585 3.64018C4.43122 3.78652 4.50732 3.92115 4.56 4.04993C4.61268 4.17285 4.64195 4.29578 4.64195 4.407C4.64195 4.54748 4.60098 4.68797 4.51902 4.8226C4.44293 4.95723 4.33171 5.09771 4.19122 5.2382L3.74634 5.70063C3.68195 5.76502 3.65268 5.84112 3.65268 5.93477C3.65268 5.9816 3.65854 6.02257 3.67024 6.0694C3.68781 6.11623 3.70537 6.15135 3.71707 6.18647C3.82244 6.37964 4.0039 6.63134 4.26146 6.93573C4.52488 7.24011 4.80585 7.55035 5.11024 7.86059C5.42634 8.17083 5.73073 8.45765 6.04098 8.72106C6.34537 8.97862 6.59707 9.15422 6.7961 9.25959C6.82537 9.27129 6.86049 9.28885 6.90146 9.30642C6.94829 9.32398 6.99512 9.32983 7.0478 9.32983C7.14732 9.32983 7.22341 9.29471 7.2878 9.23032L7.73268 8.7913C7.87902 8.64497 8.01951 8.53375 8.15415 8.4635C8.28878 8.38156 8.42341 8.34058 8.56976 8.34058C8.68097 8.34058 8.79805 8.36399 8.92683 8.41668C9.05561 8.46936 9.19024 8.54545 9.33659 8.64497L11.2741 10.0205C11.4263 10.1259 11.5317 10.2488 11.5961 10.3952C11.6546 10.5415 11.6898 10.6879 11.6898 10.8518Z" fill="white"/>
</g>
</g>
</svg>
