<svg width="30" height="30" viewBox="0 0 30 30" fill="none" xmlns="http://www.w3.org/2000/svg">
<g id="photo-camera-svgrepo-com 2" clip-path="url(#clip0_510_20)">
<g id="Group">
<path id="Vector" d="M7.77405 27.2944C7.97032 26.8734 7.90473 26.3893 7.6032 26.0314C6.14337 24.2954 5.33897 22.0932 5.33897 19.8305C5.33897 17.1305 6.48659 14.5348 8.48744 12.7083C8.84591 12.3809 8.96388 11.8775 8.78846 11.4254C8.61253 10.9714 8.18388 10.678 7.69676 10.678H2.26829C1.43795 10.678 0.762695 11.3532 0.762695 12.1836V26.4605C0.762695 27.2909 1.43795 27.9661 2.26829 27.9661H6.71693C7.17608 27.9661 7.58083 27.7088 7.77405 27.2944Z" fill="#202020"/>
<path id="Vector_2" d="M27.7317 10.678H22.3032C21.8161 10.678 21.3874 10.9714 21.2115 11.4254C21.0361 11.878 21.154 12.3814 21.5125 12.7083C23.5134 14.5348 24.661 17.1305 24.661 19.8305C24.661 22.0932 23.8571 24.2954 22.3967 26.0309C22.0952 26.3888 22.0296 26.8729 22.2259 27.2939C22.4191 27.7088 22.8239 27.9661 23.2835 27.9661H27.7322C28.5625 27.9661 29.2378 27.2909 29.2378 26.4605V12.1836C29.2373 11.3532 28.562 10.678 27.7317 10.678Z" fill="#202020"/>
<path id="Vector_3" d="M11.9492 19.8304C11.9492 21.5129 13.3175 22.8812 15.0001 22.8812C16.6826 22.8812 18.0509 21.5129 18.0509 19.8304C18.0509 18.1478 16.6826 16.7795 15.0001 16.7795C13.3175 16.7795 11.9492 18.1478 11.9492 19.8304Z" fill="#202020"/>
<path id="Vector_4" d="M6.35596 19.8306C6.35596 24.597 10.2336 28.4747 15 28.4747C19.7665 28.4747 23.6441 24.597 23.6441 19.8306C23.6441 15.0642 19.7665 11.1865 15 11.1865C10.2336 11.1865 6.35596 15.0642 6.35596 19.8306ZM19.0678 19.8306C19.0678 22.0735 17.2429 23.8984 15 23.8984C12.7571 23.8984 10.9322 22.0735 10.9322 19.8306C10.9322 17.5877 12.7571 15.7628 15 15.7628C17.2429 15.7628 19.0678 17.5877 19.0678 19.8306Z" fill="#202020"/>
<path id="Vector_5" d="M6.35588 7.6272H2.28809V10.1696H6.35588V7.6272Z" fill="#202020"/>
<path id="Vector_6" d="M23.644 10.1695H27.2033C27.4845 10.1695 27.7118 9.94225 27.7118 9.66106C27.7118 9.37988 27.4845 9.15259 27.2033 9.15259H23.644C23.3633 9.15259 23.1355 9.37988 23.1355 9.66106C23.1355 9.94225 23.3633 10.1695 23.644 10.1695Z" fill="#202020"/>
<path id="Vector_7" d="M22.1186 27.9661C21.8379 27.9661 21.6101 28.1934 21.6101 28.4745V28.983H8.38975V28.4745C8.38975 28.1934 8.16196 27.9661 7.88128 27.9661C7.6006 27.9661 7.3728 28.1934 7.3728 28.4745V29.4915C7.3728 29.7727 7.6006 30 7.88128 30H22.1186C22.3992 30 22.627 29.7727 22.627 29.4915V28.4745C22.627 28.1934 22.3992 27.9661 22.1186 27.9661Z" fill="#202020"/>
<path id="Vector_8" d="M15.0001 5.08468C15.5617 5.08468 16.0171 4.62938 16.0171 4.06773C16.0171 3.50608 15.5617 3.05078 15.0001 3.05078C14.4385 3.05078 13.9832 3.50608 13.9832 4.06773C13.9832 4.62938 14.4385 5.08468 15.0001 5.08468Z" fill="#202020"/>
<path id="Vector_9" d="M8.89837 10.678C9.17905 10.678 9.40684 10.4507 9.40684 10.1695H13.4746H16.5255H20.5933C20.5933 10.4507 20.8211 10.678 21.1018 10.678C21.3824 10.678 21.6102 10.4507 21.6102 10.1695V9.66102C21.6102 9.37983 21.3824 9.15254 21.1018 9.15254H16.5255V7.8361C18.0143 7.23102 19.0679 5.77119 19.0679 4.0678C19.0679 1.82492 17.2429 0 15.0001 0C12.7572 0 10.9323 1.82492 10.9323 4.0678C10.9323 5.77119 11.9858 7.23102 13.4746 7.8361V9.15254H8.89837C8.61769 9.15254 8.38989 9.37983 8.38989 9.66102V10.1695C8.38989 10.4507 8.61769 10.678 8.89837 10.678ZM15.5085 9.15254H14.4916V8.10356C14.5028 8.10509 14.514 8.10458 14.5251 8.10559C14.6812 8.1239 14.8394 8.13559 15.0001 8.13559C15.1607 8.13559 15.3189 8.1239 15.475 8.10559C15.4862 8.10407 15.4974 8.10509 15.5085 8.10356V9.15254ZM12.9662 4.0678C12.9662 2.9461 13.8784 2.0339 15.0001 2.0339C16.1218 2.0339 17.034 2.9461 17.034 4.0678C17.034 5.18949 16.1218 6.1017 15.0001 6.1017C13.8784 6.1017 12.9662 5.18949 12.9662 4.0678Z" fill="#202020"/>
</g>
</g>
<defs>
<clipPath id="clip0_510_20">
<rect width="30" height="30" fill="white"/>
</clipPath>
</defs>
</svg>
