<svg width="30" height="30" viewBox="0 0 30 30" fill="none" xmlns="http://www.w3.org/2000/svg">
<g id="camera-lens-svgrepo-com 2" clip-path="url(#clip0_510_33)">
<g id="Group">
<path id="Vector" d="M12.2839 27.2038L17.8876 17.5L22.3026 25.1463C20.1771 26.6804 17.6214 27.5042 15.0001 27.5C14.0676 27.5 13.1589 27.3975 12.2839 27.2038ZM9.8626 26.4C8.25661 25.6739 6.82179 24.6173 5.6518 23.2991C4.48181 21.9809 3.60296 20.4308 3.0726 18.75H14.2789L9.8626 26.3988V26.4ZM2.5626 16.25C2.38372 14.4966 2.57903 12.7251 3.13562 11.0528C3.6922 9.38046 4.59739 7.84529 5.79135 6.54876L11.3901 16.25H2.5626ZM7.69885 4.85376C9.824 3.31986 12.3792 2.49613 15.0001 2.50001C15.9326 2.50001 16.8414 2.60251 17.7164 2.79626L12.1126 12.5L7.69885 4.85376ZM20.1376 3.60001C21.7436 4.32612 23.1784 5.38274 24.3484 6.70092C25.5184 8.01909 26.3973 9.56918 26.9276 11.25H15.7214L20.1376 3.60001ZM27.4376 13.75C27.6165 15.5034 27.4212 17.2749 26.8646 18.9472C26.308 20.6196 25.4028 22.1547 24.2089 23.4513L18.6101 13.75H27.4401H27.4376Z" fill="#202020"/>
</g>
</g>
<defs>
<clipPath id="clip0_510_33">
<rect width="30" height="30" fill="white"/>
</clipPath>
</defs>
</svg>
