<svg width="546" height="257" viewBox="0 0 546 257" fill="none" xmlns="http://www.w3.org/2000/svg">
<g id="graph">
<path id="graph_2" fill-rule="evenodd" clip-rule="evenodd" d="M0 175L22.75 179.167C45.5 183.333 91 191.667 136.5 166.667C182 141.667 227.5 83.3333 273 83.3333C318.5 83.3333 364 141.667 409.5 137.5C455 133.333 500.5 66.6667 523.25 33.3333L546 0V112.5V225H523.25C500.5 225 455 225 409.5 225C364 225 318.5 225 273 225C227.5 225 182 225 136.5 225C91 225 45.5 225 22.75 225H0V175Z" fill="url(#paint0_linear_260_234)"/>
<line id="line four" x1="505.1" y1="30.9995" x2="506.1" y2="241" stroke="url(#paint1_linear_260_234)" stroke-width="0.2" stroke-dasharray="10 10"/>
<line id="line one" x1="69.1" y1="33" x2="69.1" y2="257" stroke="url(#paint2_linear_260_234)" stroke-width="0.2" stroke-dasharray="10 10"/>
<line id="line three" x1="359.1" y1="34.9995" x2="360.1" y2="245" stroke="url(#paint3_linear_260_234)" stroke-width="0.2" stroke-dasharray="10 10"/>
<line id="line two" x1="214.1" y1="34.9995" x2="215.1" y2="245" stroke="url(#paint4_linear_260_234)" stroke-width="0.2" stroke-dasharray="10 10"/>
<g id="Audience heading">
<circle id="Ellipse 26" cx="215" cy="109" r="4" fill="#553E95"/>
<path id="Audience" d="M190.415 99H189.307L192.511 90.2727H193.602L196.807 99H195.699L193.091 91.6534H193.023L190.415 99ZM190.824 95.5909H195.29V96.5284H190.824V95.5909ZM202.035 96.3239V92.4545H203.041V99H202.035V97.892H201.967C201.813 98.2244 201.575 98.5071 201.251 98.7401C200.927 98.9702 200.518 99.0852 200.023 99.0852C199.614 99.0852 199.251 98.9957 198.933 98.8168C198.614 98.6349 198.364 98.3622 198.183 97.9986C198.001 97.6321 197.91 97.1705 197.91 96.6136V92.4545H198.916V96.5455C198.916 97.0227 199.049 97.4034 199.316 97.6875C199.586 97.9716 199.93 98.1136 200.347 98.1136C200.597 98.1136 200.852 98.0497 201.11 97.9219C201.371 97.794 201.59 97.598 201.766 97.3338C201.945 97.0696 202.035 96.733 202.035 96.3239ZM207.234 99.1364C206.689 99.1364 206.207 98.9986 205.789 98.723C205.372 98.4446 205.045 98.0526 204.809 97.5469C204.574 97.0384 204.456 96.4375 204.456 95.7443C204.456 95.0568 204.574 94.4602 204.809 93.9545C205.045 93.4489 205.373 93.0582 205.794 92.7827C206.214 92.5071 206.7 92.3693 207.251 92.3693C207.677 92.3693 208.014 92.4403 208.261 92.5824C208.511 92.7216 208.701 92.8807 208.832 93.0597C208.966 93.2358 209.069 93.3807 209.143 93.4943H209.228V90.2727H210.234V99H209.262V97.9943H209.143C209.069 98.1136 208.964 98.2642 208.828 98.446C208.691 98.625 208.497 98.7855 208.244 98.9276C207.991 99.0668 207.655 99.1364 207.234 99.1364ZM207.37 98.233C207.774 98.233 208.115 98.1278 208.393 97.9176C208.672 97.7045 208.883 97.4105 209.028 97.0355C209.173 96.6577 209.245 96.2216 209.245 95.7273C209.245 95.2386 209.174 94.8111 209.032 94.4446C208.89 94.0753 208.68 93.7884 208.402 93.5838C208.123 93.3764 207.78 93.2727 207.37 93.2727C206.944 93.2727 206.589 93.3821 206.305 93.6009C206.024 93.8168 205.812 94.1108 205.67 94.483C205.531 94.8523 205.461 95.267 205.461 95.7273C205.461 96.1932 205.532 96.6165 205.674 96.9972C205.819 97.375 206.032 97.6761 206.314 97.9006C206.598 98.1222 206.95 98.233 207.37 98.233ZM212.096 99V92.4545H213.101V99H212.096ZM212.607 91.3636C212.411 91.3636 212.242 91.2969 212.1 91.1634C211.961 91.0298 211.891 90.8693 211.891 90.6818C211.891 90.4943 211.961 90.3338 212.1 90.2003C212.242 90.0668 212.411 90 212.607 90C212.803 90 212.971 90.0668 213.11 90.2003C213.252 90.3338 213.323 90.4943 213.323 90.6818C213.323 90.8693 213.252 91.0298 213.11 91.1634C212.971 91.2969 212.803 91.3636 212.607 91.3636ZM217.568 99.1364C216.937 99.1364 216.393 98.9972 215.935 98.7188C215.481 98.4375 215.13 98.0455 214.883 97.5426C214.639 97.0369 214.516 96.4489 214.516 95.7784C214.516 95.108 214.639 94.517 214.883 94.0057C215.13 93.4915 215.474 93.0909 215.914 92.804C216.357 92.5142 216.874 92.3693 217.465 92.3693C217.806 92.3693 218.143 92.4261 218.475 92.5398C218.808 92.6534 219.11 92.8381 219.383 93.0938C219.656 93.3466 219.873 93.6818 220.035 94.0994C220.197 94.517 220.278 95.0312 220.278 95.642V96.0682H215.232V95.1989H219.255C219.255 94.8295 219.181 94.5 219.033 94.2102C218.889 93.9205 218.681 93.6918 218.411 93.5241C218.144 93.3565 217.829 93.2727 217.465 93.2727C217.065 93.2727 216.718 93.3722 216.426 93.571C216.136 93.767 215.913 94.0227 215.757 94.3381C215.6 94.6534 215.522 94.9915 215.522 95.3523V95.9318C215.522 96.4261 215.607 96.8452 215.778 97.1889C215.951 97.5298 216.191 97.7898 216.498 97.9688C216.805 98.1449 217.161 98.233 217.568 98.233C217.832 98.233 218.07 98.196 218.283 98.1222C218.499 98.0455 218.685 97.9318 218.842 97.7812C218.998 97.6278 219.119 97.4375 219.204 97.2102L220.176 97.483C220.073 97.8125 219.901 98.1023 219.66 98.3523C219.418 98.5994 219.12 98.7926 218.765 98.9318C218.41 99.0682 218.011 99.1364 217.568 99.1364ZM222.693 95.0625V99H221.688V92.4545H222.659V93.4773H222.744C222.898 93.1449 223.131 92.8778 223.443 92.6761C223.756 92.4716 224.159 92.3693 224.654 92.3693C225.097 92.3693 225.485 92.4602 225.817 92.642C226.149 92.821 226.408 93.0938 226.592 93.4602C226.777 93.8239 226.869 94.2841 226.869 94.8409V99H225.864V94.9091C225.864 94.3949 225.73 93.9943 225.463 93.7074C225.196 93.4176 224.83 93.2727 224.364 93.2727C224.043 93.2727 223.756 93.3423 223.503 93.4815C223.253 93.6207 223.056 93.8239 222.911 94.0909C222.766 94.358 222.693 94.6818 222.693 95.0625ZM231.246 99.1364C230.633 99.1364 230.104 98.9915 229.661 98.7017C229.218 98.4119 228.877 98.0128 228.638 97.5043C228.4 96.9957 228.28 96.4148 228.28 95.7614C228.28 95.0966 228.403 94.5099 228.647 94.0014C228.894 93.4901 229.238 93.0909 229.678 92.804C230.121 92.5142 230.638 92.3693 231.229 92.3693C231.689 92.3693 232.104 92.4545 232.474 92.625C232.843 92.7955 233.145 93.0341 233.381 93.3409C233.617 93.6477 233.763 94.0057 233.82 94.4148H232.814C232.738 94.1165 232.567 93.8523 232.303 93.6222C232.042 93.3892 231.689 93.2727 231.246 93.2727C230.854 93.2727 230.51 93.375 230.215 93.5795C229.922 93.7812 229.694 94.0668 229.529 94.4361C229.367 94.8026 229.286 95.233 229.286 95.7273C229.286 96.233 229.366 96.6733 229.525 97.0483C229.687 97.4233 229.914 97.7145 230.206 97.9219C230.502 98.1293 230.849 98.233 231.246 98.233C231.508 98.233 231.745 98.1875 231.958 98.0966C232.171 98.0057 232.351 97.875 232.499 97.7045C232.647 97.5341 232.752 97.3295 232.814 97.0909H233.82C233.763 97.4773 233.623 97.8253 233.398 98.1349C233.177 98.4418 232.883 98.6861 232.516 98.8679C232.153 99.0469 231.729 99.1364 231.246 99.1364ZM237.915 99.1364C237.284 99.1364 236.74 98.9972 236.283 98.7188C235.828 98.4375 235.477 98.0455 235.23 97.5426C234.986 97.0369 234.863 96.4489 234.863 95.7784C234.863 95.108 234.986 94.517 235.23 94.0057C235.477 93.4915 235.821 93.0909 236.261 92.804C236.704 92.5142 237.221 92.3693 237.812 92.3693C238.153 92.3693 238.49 92.4261 238.822 92.5398C239.155 92.6534 239.457 92.8381 239.73 93.0938C240.003 93.3466 240.22 93.6818 240.382 94.0994C240.544 94.517 240.625 95.0312 240.625 95.642V96.0682H235.579V95.1989H239.602C239.602 94.8295 239.528 94.5 239.381 94.2102C239.236 93.9205 239.028 93.6918 238.758 93.5241C238.491 93.3565 238.176 93.2727 237.812 93.2727C237.412 93.2727 237.065 93.3722 236.773 93.571C236.483 93.767 236.26 94.0227 236.104 94.3381C235.947 94.6534 235.869 94.9915 235.869 95.3523V95.9318C235.869 96.4261 235.954 96.8452 236.125 97.1889C236.298 97.5298 236.538 97.7898 236.845 97.9688C237.152 98.1449 237.508 98.233 237.915 98.233C238.179 98.233 238.417 98.196 238.631 98.1222C238.846 98.0455 239.033 97.9318 239.189 97.7812C239.345 97.6278 239.466 97.4375 239.551 97.2102L240.523 97.483C240.42 97.8125 240.248 98.1023 240.007 98.3523C239.765 98.5994 239.467 98.7926 239.112 98.9318C238.757 99.0682 238.358 99.1364 237.915 99.1364Z" fill="#816A72"/>
<path id="Know who we target" d="M180.099 170V162.727H180.979V166.335H181.065L184.332 162.727H185.482L182.428 166.009L185.482 170H184.417L181.888 166.619L180.979 167.642V170H180.099ZM187.247 166.719V170H186.408V164.545H187.218V165.398H187.289C187.417 165.121 187.611 164.898 187.872 164.73C188.132 164.56 188.468 164.474 188.88 164.474C189.249 164.474 189.573 164.55 189.85 164.702C190.126 164.851 190.342 165.078 190.496 165.384C190.65 165.687 190.727 166.07 190.727 166.534V170H189.889V166.591C189.889 166.162 189.777 165.829 189.555 165.589C189.332 165.348 189.027 165.227 188.639 165.227C188.371 165.227 188.132 165.285 187.921 165.401C187.713 165.517 187.548 165.687 187.428 165.909C187.307 166.132 187.247 166.402 187.247 166.719ZM194.374 170.114C193.882 170.114 193.449 169.996 193.078 169.762C192.708 169.528 192.42 169.2 192.211 168.778C192.005 168.357 191.902 167.865 191.902 167.301C191.902 166.733 192.005 166.237 192.211 165.813C192.42 165.389 192.708 165.06 193.078 164.826C193.449 164.592 193.882 164.474 194.374 164.474C194.866 164.474 195.297 164.592 195.667 164.826C196.038 165.06 196.327 165.389 196.533 165.813C196.741 166.237 196.846 166.733 196.846 167.301C196.846 167.865 196.741 168.357 196.533 168.778C196.327 169.2 196.038 169.528 195.667 169.762C195.297 169.996 194.866 170.114 194.374 170.114ZM194.374 169.361C194.748 169.361 195.056 169.265 195.297 169.073C195.539 168.881 195.717 168.629 195.833 168.317C195.949 168.004 196.007 167.666 196.007 167.301C196.007 166.937 195.949 166.597 195.833 166.282C195.717 165.967 195.539 165.713 195.297 165.518C195.056 165.324 194.748 165.227 194.374 165.227C194 165.227 193.692 165.324 193.451 165.518C193.209 165.713 193.03 165.967 192.914 166.282C192.798 166.597 192.74 166.937 192.74 167.301C192.74 167.666 192.798 168.004 192.914 168.317C193.03 168.629 193.209 168.881 193.451 169.073C193.692 169.265 194 169.361 194.374 169.361ZM199.075 170L197.413 164.545H198.294L199.473 168.722H199.53L200.694 164.545H201.589L202.74 168.707H202.797L203.976 164.545H204.856L203.194 170H202.371L201.177 165.81H201.092L199.899 170H199.075ZM209.813 170L208.151 164.545H209.031L210.21 168.722H210.267L211.432 164.545H212.327L213.477 168.707H213.534L214.713 164.545H215.594L213.932 170H213.108L211.915 165.81H211.83L210.636 170H209.813ZM217.44 166.719V170H216.602V162.727H217.44V165.398H217.511C217.639 165.116 217.831 164.892 218.086 164.727C218.344 164.558 218.688 164.474 219.116 164.474C219.488 164.474 219.813 164.549 220.093 164.698C220.372 164.845 220.589 165.071 220.742 165.376C220.899 165.679 220.977 166.065 220.977 166.534V170H220.139V166.591C220.139 166.158 220.026 165.823 219.801 165.586C219.579 165.347 219.27 165.227 218.875 165.227C218.6 165.227 218.354 165.285 218.136 165.401C217.92 165.517 217.75 165.687 217.625 165.909C217.501 166.132 217.44 166.402 217.44 166.719ZM224.626 170.114C224.133 170.114 223.701 169.996 223.33 169.762C222.96 169.528 222.672 169.2 222.463 168.778C222.257 168.357 222.154 167.865 222.154 167.301C222.154 166.733 222.257 166.237 222.463 165.813C222.672 165.389 222.96 165.06 223.33 164.826C223.701 164.592 224.133 164.474 224.626 164.474C225.118 164.474 225.549 164.592 225.919 164.826C226.29 165.06 226.579 165.389 226.785 165.813C226.993 166.237 227.098 166.733 227.098 167.301C227.098 167.865 226.993 168.357 226.785 168.778C226.579 169.2 226.29 169.528 225.919 169.762C225.549 169.996 225.118 170.114 224.626 170.114ZM224.626 169.361C225 169.361 225.308 169.265 225.549 169.073C225.791 168.881 225.969 168.629 226.085 168.317C226.201 168.004 226.259 167.666 226.259 167.301C226.259 166.937 226.201 166.597 226.085 166.282C225.969 165.967 225.791 165.713 225.549 165.518C225.308 165.324 225 165.227 224.626 165.227C224.252 165.227 223.944 165.324 223.703 165.518C223.461 165.713 223.282 165.967 223.166 166.282C223.05 166.597 222.992 166.937 222.992 167.301C222.992 167.666 223.05 168.004 223.166 168.317C223.282 168.629 223.461 168.881 223.703 169.073C223.944 169.265 224.252 169.361 224.626 169.361ZM232.225 170L230.563 164.545H231.444L232.623 168.722H232.68L233.844 164.545H234.739L235.89 168.707H235.947L237.126 164.545H238.006L236.344 170H235.521L234.327 165.81H234.242L233.049 170H232.225ZM241.116 170.114C240.59 170.114 240.137 169.998 239.756 169.766C239.377 169.531 239.084 169.205 238.878 168.786C238.675 168.364 238.573 167.874 238.573 167.315C238.573 166.757 238.675 166.264 238.878 165.838C239.084 165.41 239.371 165.076 239.738 164.837C240.107 164.595 240.538 164.474 241.03 164.474C241.315 164.474 241.595 164.522 241.872 164.616C242.149 164.711 242.401 164.865 242.628 165.078C242.856 165.289 243.037 165.568 243.172 165.916C243.307 166.264 243.374 166.693 243.374 167.202V167.557H239.17V166.832H242.522C242.522 166.525 242.46 166.25 242.337 166.009C242.217 165.767 242.044 165.576 241.819 165.437C241.596 165.297 241.334 165.227 241.03 165.227C240.697 165.227 240.408 165.31 240.164 165.476C239.923 165.639 239.737 165.852 239.606 166.115C239.476 166.378 239.411 166.66 239.411 166.96V167.443C239.411 167.855 239.482 168.204 239.624 168.491C239.769 168.775 239.969 168.991 240.224 169.141C240.48 169.287 240.777 169.361 241.116 169.361C241.336 169.361 241.535 169.33 241.712 169.268C241.892 169.205 242.047 169.11 242.177 168.984C242.308 168.857 242.408 168.698 242.479 168.509L243.289 168.736C243.204 169.01 243.061 169.252 242.859 169.46C242.658 169.666 242.409 169.827 242.114 169.943C241.818 170.057 241.485 170.114 241.116 170.114ZM200.705 180.545V181.256H197.878V180.545H200.705ZM198.702 179.239H199.54V184.438C199.54 184.674 199.574 184.852 199.643 184.97C199.714 185.086 199.804 185.164 199.913 185.205C200.024 185.242 200.141 185.261 200.264 185.261C200.357 185.261 200.432 185.257 200.492 185.247C200.551 185.235 200.598 185.226 200.634 185.219L200.804 185.972C200.747 185.993 200.668 186.014 200.566 186.036C200.464 186.059 200.335 186.071 200.179 186.071C199.942 186.071 199.71 186.02 199.483 185.918C199.258 185.817 199.071 185.661 198.922 185.453C198.775 185.245 198.702 184.982 198.702 184.665V179.239ZM203.47 186.128C203.125 186.128 202.811 186.063 202.529 185.933C202.248 185.8 202.024 185.609 201.858 185.361C201.692 185.11 201.61 184.807 201.61 184.452C201.61 184.139 201.671 183.886 201.794 183.692C201.917 183.495 202.082 183.341 202.288 183.23C202.494 183.119 202.721 183.036 202.97 182.982C203.221 182.925 203.473 182.88 203.726 182.847C204.058 182.804 204.326 182.772 204.532 182.751C204.741 182.727 204.892 182.688 204.987 182.634C205.084 182.579 205.132 182.484 205.132 182.349V182.321C205.132 181.971 205.036 181.698 204.845 181.504C204.655 181.31 204.368 181.213 203.982 181.213C203.582 181.213 203.268 181.301 203.041 181.476C202.813 181.651 202.654 181.838 202.561 182.037L201.766 181.753C201.908 181.421 202.097 181.163 202.334 180.979C202.573 180.792 202.834 180.661 203.115 180.588C203.399 180.512 203.679 180.474 203.953 180.474C204.129 180.474 204.33 180.496 204.557 180.538C204.787 180.579 205.008 180.663 205.221 180.79C205.437 180.918 205.615 181.111 205.757 181.369C205.899 181.627 205.97 181.973 205.97 182.406V186H205.132V185.261H205.09C205.033 185.38 204.938 185.506 204.806 185.641C204.673 185.776 204.497 185.891 204.277 185.986C204.056 186.08 203.788 186.128 203.47 186.128ZM203.598 185.375C203.93 185.375 204.209 185.31 204.436 185.18C204.666 185.049 204.839 184.881 204.955 184.675C205.073 184.469 205.132 184.253 205.132 184.026V183.259C205.097 183.301 205.019 183.34 204.898 183.376C204.78 183.409 204.642 183.438 204.486 183.464C204.332 183.488 204.182 183.509 204.035 183.528C203.891 183.545 203.773 183.559 203.683 183.571C203.466 183.599 203.262 183.646 203.073 183.71C202.886 183.771 202.734 183.865 202.618 183.99C202.504 184.113 202.448 184.281 202.448 184.494C202.448 184.786 202.555 185.006 202.771 185.155C202.989 185.302 203.264 185.375 203.598 185.375ZM207.4 186V180.545H208.21V181.369H208.267C208.366 181.099 208.546 180.88 208.806 180.712C209.067 180.544 209.36 180.46 209.687 180.46C209.749 180.46 209.825 180.461 209.918 180.464C210.01 180.466 210.08 180.47 210.127 180.474V181.327C210.099 181.32 210.034 181.309 209.932 181.295C209.833 181.278 209.727 181.27 209.616 181.27C209.351 181.27 209.114 181.326 208.906 181.437C208.7 181.546 208.536 181.697 208.416 181.891C208.297 182.083 208.238 182.302 208.238 182.548V186H207.4ZM213.056 188.159C212.652 188.159 212.304 188.107 212.012 188.003C211.721 187.901 211.479 187.766 211.284 187.598C211.093 187.432 210.94 187.255 210.826 187.065L211.494 186.597C211.57 186.696 211.666 186.81 211.782 186.938C211.898 187.068 212.056 187.18 212.257 187.275C212.461 187.372 212.727 187.42 213.056 187.42C213.497 187.42 213.86 187.314 214.147 187.101C214.433 186.888 214.576 186.554 214.576 186.099V184.991H214.505C214.444 185.091 214.356 185.214 214.243 185.361C214.131 185.505 213.97 185.634 213.76 185.748C213.551 185.859 213.27 185.915 212.914 185.915C212.474 185.915 212.079 185.811 211.728 185.602C211.38 185.394 211.105 185.091 210.901 184.693C210.7 184.295 210.599 183.812 210.599 183.244C210.599 182.686 210.697 182.199 210.894 181.785C211.09 181.368 211.364 181.046 211.714 180.819C212.064 180.589 212.469 180.474 212.929 180.474C213.284 180.474 213.565 180.534 213.774 180.652C213.984 180.768 214.145 180.901 214.257 181.05C214.37 181.196 214.458 181.317 214.52 181.412H214.605V180.545H215.414V186.156C215.414 186.625 215.308 187.006 215.095 187.3C214.884 187.596 214.6 187.812 214.243 187.95C213.887 188.089 213.492 188.159 213.056 188.159ZM213.028 185.162C213.364 185.162 213.648 185.085 213.88 184.931C214.112 184.777 214.289 184.556 214.409 184.267C214.53 183.978 214.591 183.633 214.591 183.23C214.591 182.837 214.531 182.49 214.413 182.19C214.295 181.889 214.119 181.653 213.887 181.483C213.655 181.312 213.369 181.227 213.028 181.227C212.673 181.227 212.377 181.317 212.14 181.497C211.906 181.677 211.73 181.919 211.611 182.222C211.495 182.525 211.437 182.861 211.437 183.23C211.437 183.609 211.496 183.944 211.615 184.235C211.735 184.524 211.913 184.751 212.147 184.917C212.384 185.08 212.678 185.162 213.028 185.162ZM219.135 186.114C218.61 186.114 218.156 185.998 217.775 185.766C217.397 185.531 217.104 185.205 216.898 184.786C216.695 184.364 216.593 183.874 216.593 183.315C216.593 182.757 216.695 182.264 216.898 181.838C217.104 181.41 217.391 181.076 217.758 180.837C218.127 180.595 218.558 180.474 219.05 180.474C219.334 180.474 219.615 180.522 219.892 180.616C220.169 180.711 220.421 180.865 220.648 181.078C220.875 181.289 221.057 181.568 221.192 181.916C221.326 182.264 221.394 182.693 221.394 183.202V183.557H217.189V182.832H220.542C220.542 182.525 220.48 182.25 220.357 182.009C220.236 181.767 220.063 181.576 219.839 181.437C219.616 181.297 219.353 181.227 219.05 181.227C218.716 181.227 218.428 181.31 218.184 181.476C217.942 181.639 217.756 181.852 217.626 182.115C217.496 182.378 217.431 182.66 217.431 182.96V183.443C217.431 183.855 217.502 184.204 217.644 184.491C217.788 184.775 217.988 184.991 218.244 185.141C218.5 185.287 218.797 185.361 219.135 185.361C219.356 185.361 219.554 185.33 219.732 185.268C219.912 185.205 220.067 185.11 220.197 184.984C220.327 184.857 220.428 184.698 220.499 184.509L221.309 184.736C221.223 185.01 221.08 185.252 220.879 185.46C220.678 185.666 220.429 185.827 220.133 185.943C219.837 186.057 219.505 186.114 219.135 186.114ZM224.941 180.545V181.256H222.114V180.545H224.941ZM222.938 179.239H223.776V184.438C223.776 184.674 223.811 184.852 223.879 184.97C223.95 185.086 224.04 185.164 224.149 185.205C224.26 185.242 224.378 185.261 224.501 185.261C224.593 185.261 224.669 185.257 224.728 185.247C224.787 185.235 224.834 185.226 224.87 185.219L225.04 185.972C224.984 185.993 224.904 186.014 224.802 186.036C224.701 186.059 224.572 186.071 224.415 186.071C224.179 186.071 223.947 186.02 223.719 185.918C223.494 185.817 223.307 185.661 223.158 185.453C223.012 185.245 222.938 184.982 222.938 184.665V179.239Z" fill="#816A72"/>
</g>
<g id="Idea heading">
<g id="Group 123">
<g id="idea">
<circle id="Ellipse 27" cx="360" cy="124" r="4" fill="#553E95"/>
<path id="Idea" d="M350.114 105.273V114H349.057V105.273H350.114ZM354.448 114.136C353.902 114.136 353.421 113.999 353.003 113.723C352.586 113.445 352.259 113.053 352.023 112.547C351.787 112.038 351.669 111.438 351.669 110.744C351.669 110.057 351.787 109.46 352.023 108.955C352.259 108.449 352.587 108.058 353.007 107.783C353.428 107.507 353.914 107.369 354.465 107.369C354.891 107.369 355.228 107.44 355.475 107.582C355.725 107.722 355.915 107.881 356.046 108.06C356.179 108.236 356.283 108.381 356.357 108.494H356.442V105.273H357.448V114H356.476V112.994H356.357C356.283 113.114 356.178 113.264 356.042 113.446C355.905 113.625 355.711 113.786 355.458 113.928C355.205 114.067 354.868 114.136 354.448 114.136ZM354.584 113.233C354.988 113.233 355.329 113.128 355.607 112.918C355.885 112.705 356.097 112.411 356.242 112.036C356.387 111.658 356.459 111.222 356.459 110.727C356.459 110.239 356.388 109.811 356.246 109.445C356.104 109.075 355.894 108.788 355.615 108.584C355.337 108.376 354.993 108.273 354.584 108.273C354.158 108.273 353.803 108.382 353.519 108.601C353.238 108.817 353.026 109.111 352.884 109.483C352.745 109.852 352.675 110.267 352.675 110.727C352.675 111.193 352.746 111.616 352.888 111.997C353.033 112.375 353.246 112.676 353.527 112.901C353.811 113.122 354.164 113.233 354.584 113.233ZM362.054 114.136C361.423 114.136 360.879 113.997 360.422 113.719C359.967 113.438 359.616 113.045 359.369 112.543C359.125 112.037 359.003 111.449 359.003 110.778C359.003 110.108 359.125 109.517 359.369 109.006C359.616 108.491 359.96 108.091 360.4 107.804C360.843 107.514 361.36 107.369 361.951 107.369C362.292 107.369 362.629 107.426 362.961 107.54C363.294 107.653 363.596 107.838 363.869 108.094C364.142 108.347 364.359 108.682 364.521 109.099C364.683 109.517 364.764 110.031 364.764 110.642V111.068H359.718V110.199H363.741C363.741 109.83 363.667 109.5 363.52 109.21C363.375 108.92 363.167 108.692 362.897 108.524C362.63 108.357 362.315 108.273 361.951 108.273C361.551 108.273 361.204 108.372 360.912 108.571C360.622 108.767 360.399 109.023 360.243 109.338C360.086 109.653 360.008 109.991 360.008 110.352V110.932C360.008 111.426 360.093 111.845 360.264 112.189C360.437 112.53 360.677 112.79 360.984 112.969C361.291 113.145 361.647 113.233 362.054 113.233C362.318 113.233 362.557 113.196 362.77 113.122C362.985 113.045 363.172 112.932 363.328 112.781C363.484 112.628 363.605 112.437 363.69 112.21L364.662 112.483C364.559 112.812 364.387 113.102 364.146 113.352C363.905 113.599 363.606 113.793 363.251 113.932C362.896 114.068 362.497 114.136 362.054 114.136ZM368.1 114.153C367.685 114.153 367.309 114.075 366.971 113.919C366.633 113.76 366.364 113.531 366.165 113.233C365.966 112.932 365.867 112.568 365.867 112.142C365.867 111.767 365.941 111.463 366.089 111.23C366.236 110.994 366.434 110.81 366.681 110.676C366.928 110.543 367.201 110.443 367.499 110.378C367.8 110.31 368.103 110.256 368.407 110.216C368.804 110.165 369.127 110.126 369.374 110.101C369.624 110.072 369.806 110.026 369.919 109.96C370.036 109.895 370.094 109.781 370.094 109.619V109.585C370.094 109.165 369.979 108.838 369.749 108.605C369.522 108.372 369.177 108.256 368.714 108.256C368.233 108.256 367.857 108.361 367.584 108.571C367.312 108.781 367.12 109.006 367.009 109.244L366.054 108.903C366.225 108.506 366.452 108.196 366.736 107.974C367.023 107.75 367.336 107.594 367.674 107.506C368.015 107.415 368.35 107.369 368.679 107.369C368.89 107.369 369.131 107.395 369.404 107.446C369.679 107.494 369.945 107.595 370.201 107.749C370.459 107.902 370.674 108.134 370.844 108.443C371.015 108.753 371.1 109.168 371.1 109.688V114H370.094V113.114H370.043C369.975 113.256 369.861 113.408 369.702 113.57C369.543 113.732 369.331 113.869 369.067 113.983C368.803 114.097 368.481 114.153 368.1 114.153ZM368.253 113.25C368.651 113.25 368.986 113.172 369.259 113.016C369.535 112.859 369.742 112.658 369.881 112.411C370.023 112.163 370.094 111.903 370.094 111.631V110.71C370.052 110.761 369.958 110.808 369.813 110.851C369.671 110.891 369.506 110.926 369.319 110.957C369.134 110.986 368.954 111.011 368.777 111.034C368.604 111.054 368.464 111.071 368.356 111.085C368.094 111.119 367.85 111.175 367.623 111.251C367.398 111.325 367.216 111.437 367.077 111.588C366.941 111.736 366.873 111.937 366.873 112.193C366.873 112.543 367.002 112.807 367.26 112.986C367.522 113.162 367.853 113.25 368.253 113.25Z" fill="#816A72"/>
</g>
</g>
<path id="Build the message" d="M342.406 180V172.727H344.948C345.455 172.727 345.873 172.815 346.202 172.99C346.531 173.163 346.776 173.396 346.937 173.69C347.098 173.981 347.178 174.304 347.178 174.659C347.178 174.972 347.123 175.23 347.012 175.433C346.903 175.637 346.758 175.798 346.578 175.916C346.401 176.035 346.208 176.122 345.999 176.179V176.25C346.222 176.264 346.446 176.342 346.671 176.484C346.896 176.626 347.084 176.83 347.235 177.095C347.387 177.36 347.462 177.685 347.462 178.068C347.462 178.433 347.38 178.761 347.214 179.052C347.048 179.343 346.787 179.574 346.429 179.744C346.072 179.915 345.606 180 345.034 180H342.406ZM343.286 179.219H345.034C345.609 179.219 346.017 179.107 346.259 178.885C346.503 178.66 346.624 178.388 346.624 178.068C346.624 177.822 346.562 177.595 346.436 177.386C346.311 177.176 346.132 177.008 345.9 176.882C345.668 176.754 345.393 176.69 345.076 176.69H343.286V179.219ZM343.286 175.923H344.92C345.185 175.923 345.424 175.871 345.637 175.767C345.853 175.663 346.023 175.516 346.149 175.327C346.276 175.137 346.34 174.915 346.34 174.659C346.34 174.339 346.229 174.068 346.007 173.846C345.784 173.621 345.431 173.509 344.948 173.509H343.286V175.923ZM352.133 177.77V174.545H352.972V180H352.133V179.077H352.077C351.949 179.354 351.75 179.589 351.48 179.783C351.21 179.975 350.869 180.071 350.457 180.071C350.116 180.071 349.813 179.996 349.548 179.847C349.283 179.696 349.075 179.469 348.923 179.165C348.772 178.86 348.696 178.475 348.696 178.011V174.545H349.534V177.955C349.534 178.352 349.645 178.67 349.868 178.906C350.093 179.143 350.379 179.261 350.727 179.261C350.936 179.261 351.147 179.208 351.363 179.102C351.581 178.995 351.763 178.832 351.91 178.612C352.059 178.391 352.133 178.111 352.133 177.77ZM354.406 180V174.545H355.245V180H354.406ZM354.833 173.636C354.669 173.636 354.528 173.581 354.41 173.469C354.294 173.358 354.236 173.224 354.236 173.068C354.236 172.912 354.294 172.778 354.41 172.667C354.528 172.556 354.669 172.5 354.833 172.5C354.996 172.5 355.136 172.556 355.252 172.667C355.37 172.778 355.429 172.912 355.429 173.068C355.429 173.224 355.37 173.358 355.252 173.469C355.136 173.581 354.996 173.636 354.833 173.636ZM357.518 172.727V180H356.68V172.727H357.518ZM361.012 180.114C360.558 180.114 360.156 179.999 359.808 179.769C359.46 179.537 359.188 179.21 358.992 178.789C358.795 178.365 358.697 177.865 358.697 177.287C358.697 176.714 358.795 176.217 358.992 175.795C359.188 175.374 359.462 175.049 359.812 174.819C360.162 174.589 360.567 174.474 361.026 174.474C361.382 174.474 361.662 174.534 361.868 174.652C362.076 174.768 362.235 174.901 362.344 175.05C362.455 175.196 362.542 175.317 362.603 175.412H362.674V172.727H363.512V180H362.703V179.162H362.603C362.542 179.261 362.454 179.387 362.34 179.538C362.227 179.687 362.065 179.821 361.854 179.94C361.643 180.056 361.363 180.114 361.012 180.114ZM361.126 179.361C361.462 179.361 361.746 179.273 361.978 179.098C362.21 178.92 362.387 178.675 362.507 178.363C362.628 178.048 362.688 177.685 362.688 177.273C362.688 176.866 362.629 176.509 362.511 176.204C362.392 175.896 362.217 175.657 361.985 175.487C361.753 175.314 361.467 175.227 361.126 175.227C360.771 175.227 360.475 175.318 360.238 175.501C360.004 175.681 359.827 175.926 359.709 176.236C359.593 176.544 359.535 176.889 359.535 177.273C359.535 177.661 359.594 178.014 359.713 178.331C359.833 178.646 360.011 178.897 360.245 179.084C360.482 179.268 360.776 179.361 361.126 179.361ZM370.148 174.545V175.256H367.321V174.545H370.148ZM368.145 173.239H368.983V178.438C368.983 178.674 369.018 178.852 369.086 178.97C369.157 179.086 369.247 179.164 369.356 179.205C369.468 179.242 369.585 179.261 369.708 179.261C369.8 179.261 369.876 179.257 369.935 179.247C369.994 179.235 370.042 179.226 370.077 179.219L370.248 179.972C370.191 179.993 370.111 180.014 370.01 180.036C369.908 180.059 369.779 180.071 369.623 180.071C369.386 180.071 369.154 180.02 368.927 179.918C368.702 179.817 368.515 179.661 368.366 179.453C368.219 179.245 368.145 178.982 368.145 178.665V173.239ZM372.264 176.719V180H371.426V172.727H372.264V175.398H372.335C372.463 175.116 372.655 174.892 372.91 174.727C373.168 174.558 373.512 174.474 373.94 174.474C374.312 174.474 374.637 174.549 374.917 174.698C375.196 174.845 375.413 175.071 375.567 175.376C375.723 175.679 375.801 176.065 375.801 176.534V180H374.963V176.591C374.963 176.158 374.851 175.823 374.626 175.586C374.403 175.347 374.094 175.227 373.699 175.227C373.424 175.227 373.178 175.285 372.96 175.401C372.745 175.517 372.574 175.687 372.449 175.909C372.326 176.132 372.264 176.402 372.264 176.719ZM379.521 180.114C378.996 180.114 378.542 179.998 378.161 179.766C377.782 179.531 377.49 179.205 377.284 178.786C377.08 178.364 376.979 177.874 376.979 177.315C376.979 176.757 377.08 176.264 377.284 175.838C377.49 175.41 377.776 175.076 378.143 174.837C378.513 174.595 378.944 174.474 379.436 174.474C379.72 174.474 380.001 174.522 380.278 174.616C380.555 174.711 380.807 174.865 381.034 175.078C381.261 175.289 381.442 175.568 381.577 175.916C381.712 176.264 381.78 176.693 381.78 177.202V177.557H377.575V176.832H380.927C380.927 176.525 380.866 176.25 380.743 176.009C380.622 175.767 380.449 175.576 380.224 175.437C380.002 175.297 379.739 175.227 379.436 175.227C379.102 175.227 378.813 175.31 378.569 175.476C378.328 175.639 378.142 175.852 378.012 176.115C377.882 176.378 377.817 176.66 377.817 176.96V177.443C377.817 177.855 377.888 178.204 378.03 178.491C378.174 178.775 378.374 178.991 378.63 179.141C378.886 179.287 379.183 179.361 379.521 179.361C379.741 179.361 379.94 179.33 380.118 179.268C380.298 179.205 380.453 179.11 380.583 178.984C380.713 178.857 380.814 178.698 380.885 178.509L381.694 178.736C381.609 179.01 381.466 179.252 381.265 179.46C381.064 179.666 380.815 179.827 380.519 179.943C380.223 180.057 379.89 180.114 379.521 180.114ZM340.312 196V190.545H341.122V191.398H341.193C341.306 191.107 341.49 190.88 341.743 190.719C341.997 190.556 342.301 190.474 342.656 190.474C343.016 190.474 343.315 190.556 343.554 190.719C343.796 190.88 343.984 191.107 344.119 191.398H344.176C344.315 191.116 344.525 190.892 344.804 190.727C345.084 190.558 345.419 190.474 345.809 190.474C346.297 190.474 346.696 190.627 347.006 190.933C347.316 191.236 347.471 191.708 347.471 192.349V196H346.633V192.349C346.633 191.947 346.523 191.659 346.303 191.487C346.083 191.314 345.824 191.227 345.525 191.227C345.142 191.227 344.845 191.343 344.634 191.575C344.423 191.805 344.318 192.096 344.318 192.449V196H343.466V192.264C343.466 191.954 343.365 191.704 343.164 191.515C342.962 191.323 342.703 191.227 342.386 191.227C342.168 191.227 341.965 191.285 341.775 191.401C341.588 191.517 341.437 191.678 341.321 191.884C341.207 192.088 341.15 192.323 341.15 192.591V196H340.312ZM351.19 196.114C350.665 196.114 350.212 195.998 349.83 195.766C349.452 195.531 349.159 195.205 348.953 194.786C348.75 194.364 348.648 193.874 348.648 193.315C348.648 192.757 348.75 192.264 348.953 191.838C349.159 191.41 349.446 191.076 349.813 190.837C350.182 190.595 350.613 190.474 351.105 190.474C351.389 190.474 351.67 190.522 351.947 190.616C352.224 190.711 352.476 190.865 352.703 191.078C352.931 191.289 353.112 191.568 353.247 191.916C353.382 192.264 353.449 192.693 353.449 193.202V193.557H349.244V192.832H352.597C352.597 192.525 352.535 192.25 352.412 192.009C352.291 191.767 352.119 191.576 351.894 191.437C351.671 191.297 351.408 191.227 351.105 191.227C350.771 191.227 350.483 191.31 350.239 191.476C349.997 191.639 349.811 191.852 349.681 192.115C349.551 192.378 349.486 192.66 349.486 192.96V193.443C349.486 193.855 349.557 194.204 349.699 194.491C349.843 194.775 350.043 194.991 350.299 195.141C350.555 195.287 350.852 195.361 351.19 195.361C351.411 195.361 351.61 195.33 351.787 195.268C351.967 195.205 352.122 195.11 352.252 194.984C352.382 194.857 352.483 194.698 352.554 194.509L353.364 194.736C353.279 195.01 353.135 195.252 352.934 195.46C352.733 195.666 352.484 195.827 352.188 195.943C351.892 196.057 351.56 196.114 351.19 196.114ZM358.488 191.767L357.735 191.98C357.687 191.855 357.617 191.733 357.525 191.614C357.435 191.494 357.312 191.394 357.156 191.316C357 191.238 356.8 191.199 356.556 191.199C356.222 191.199 355.944 191.276 355.721 191.43C355.501 191.581 355.391 191.774 355.391 192.009C355.391 192.217 355.467 192.381 355.618 192.502C355.77 192.623 356.006 192.723 356.328 192.804L357.138 193.003C357.626 193.121 357.989 193.302 358.228 193.546C358.467 193.788 358.587 194.099 358.587 194.48C358.587 194.793 358.497 195.072 358.317 195.318C358.14 195.564 357.891 195.759 357.571 195.901C357.252 196.043 356.88 196.114 356.456 196.114C355.9 196.114 355.439 195.993 355.075 195.751C354.71 195.51 354.479 195.157 354.382 194.693L355.178 194.494C355.254 194.788 355.397 195.008 355.608 195.155C355.821 195.302 356.099 195.375 356.442 195.375C356.833 195.375 357.143 195.292 357.372 195.126C357.604 194.958 357.72 194.757 357.72 194.523C357.72 194.333 357.654 194.175 357.522 194.047C357.389 193.917 357.185 193.82 356.911 193.756L356.002 193.543C355.502 193.424 355.135 193.241 354.901 192.992C354.669 192.741 354.553 192.428 354.553 192.051C354.553 191.743 354.639 191.471 354.812 191.234C354.987 190.998 355.225 190.812 355.526 190.677C355.829 190.542 356.172 190.474 356.556 190.474C357.095 190.474 357.519 190.593 357.827 190.83C358.137 191.066 358.357 191.379 358.488 191.767ZM363.612 191.767L362.859 191.98C362.812 191.855 362.742 191.733 362.65 191.614C362.56 191.494 362.437 191.394 362.28 191.316C362.124 191.238 361.924 191.199 361.68 191.199C361.347 191.199 361.068 191.276 360.846 191.43C360.626 191.581 360.516 191.774 360.516 192.009C360.516 192.217 360.591 192.381 360.743 192.502C360.894 192.623 361.131 192.723 361.453 192.804L362.263 193.003C362.75 193.121 363.114 193.302 363.353 193.546C363.592 193.788 363.712 194.099 363.712 194.48C363.712 194.793 363.622 195.072 363.442 195.318C363.264 195.564 363.016 195.759 362.696 195.901C362.376 196.043 362.005 196.114 361.581 196.114C361.025 196.114 360.564 195.993 360.199 195.751C359.835 195.51 359.604 195.157 359.507 194.693L360.302 194.494C360.378 194.788 360.521 195.008 360.732 195.155C360.945 195.302 361.223 195.375 361.567 195.375C361.957 195.375 362.267 195.292 362.497 195.126C362.729 194.958 362.845 194.757 362.845 194.523C362.845 194.333 362.779 194.175 362.646 194.047C362.514 193.917 362.31 193.82 362.035 193.756L361.126 193.543C360.627 193.424 360.26 193.241 360.025 192.992C359.793 192.741 359.677 192.428 359.677 192.051C359.677 191.743 359.764 191.471 359.937 191.234C360.112 190.998 360.35 190.812 360.65 190.677C360.954 190.542 361.297 190.474 361.68 190.474C362.22 190.474 362.644 190.593 362.952 190.83C363.262 191.066 363.482 191.379 363.612 191.767ZM366.478 196.128C366.133 196.128 365.819 196.063 365.537 195.933C365.255 195.8 365.032 195.609 364.866 195.361C364.7 195.11 364.617 194.807 364.617 194.452C364.617 194.139 364.679 193.886 364.802 193.692C364.925 193.495 365.09 193.341 365.296 193.23C365.502 193.119 365.729 193.036 365.978 192.982C366.228 192.925 366.481 192.88 366.734 192.847C367.065 192.804 367.334 192.772 367.54 192.751C367.748 192.727 367.9 192.688 367.995 192.634C368.092 192.579 368.14 192.484 368.14 192.349V192.321C368.14 191.971 368.044 191.698 367.853 191.504C367.663 191.31 367.375 191.213 366.99 191.213C366.589 191.213 366.276 191.301 366.049 191.476C365.821 191.651 365.661 191.838 365.569 192.037L364.774 191.753C364.916 191.421 365.105 191.163 365.342 190.979C365.581 190.792 365.841 190.661 366.123 190.588C366.407 190.512 366.687 190.474 366.961 190.474C367.136 190.474 367.338 190.496 367.565 190.538C367.795 190.579 368.016 190.663 368.229 190.79C368.444 190.918 368.623 191.111 368.765 191.369C368.907 191.627 368.978 191.973 368.978 192.406V196H368.14V195.261H368.098C368.041 195.38 367.946 195.506 367.813 195.641C367.681 195.776 367.504 195.891 367.284 195.986C367.064 196.08 366.795 196.128 366.478 196.128ZM366.606 195.375C366.937 195.375 367.217 195.31 367.444 195.18C367.674 195.049 367.847 194.881 367.963 194.675C368.081 194.469 368.14 194.253 368.14 194.026V193.259C368.105 193.301 368.027 193.34 367.906 193.376C367.787 193.409 367.65 193.438 367.494 193.464C367.34 193.488 367.19 193.509 367.043 193.528C366.898 193.545 366.781 193.559 366.691 193.571C366.473 193.599 366.27 193.646 366.08 193.71C365.893 193.771 365.742 193.865 365.626 193.99C365.512 194.113 365.455 194.281 365.455 194.494C365.455 194.786 365.563 195.006 365.779 195.155C365.996 195.302 366.272 195.375 366.606 195.375ZM372.61 198.159C372.205 198.159 371.857 198.107 371.566 198.003C371.274 197.901 371.032 197.766 370.838 197.598C370.646 197.432 370.493 197.255 370.379 197.065L371.047 196.597C371.123 196.696 371.219 196.81 371.335 196.938C371.451 197.068 371.609 197.18 371.811 197.275C372.014 197.372 372.28 197.42 372.61 197.42C373.05 197.42 373.413 197.314 373.7 197.101C373.986 196.888 374.129 196.554 374.129 196.099V194.991H374.058C373.997 195.091 373.909 195.214 373.796 195.361C373.684 195.505 373.523 195.634 373.313 195.748C373.104 195.859 372.823 195.915 372.468 195.915C372.027 195.915 371.632 195.811 371.281 195.602C370.933 195.394 370.658 195.091 370.454 194.693C370.253 194.295 370.152 193.812 370.152 193.244C370.152 192.686 370.25 192.199 370.447 191.785C370.643 191.368 370.917 191.046 371.267 190.819C371.618 190.589 372.022 190.474 372.482 190.474C372.837 190.474 373.119 190.534 373.327 190.652C373.538 190.768 373.699 190.901 373.81 191.05C373.923 191.196 374.011 191.317 374.073 191.412H374.158V190.545H374.968V196.156C374.968 196.625 374.861 197.006 374.648 197.3C374.437 197.596 374.153 197.812 373.796 197.95C373.441 198.089 373.045 198.159 372.61 198.159ZM372.581 195.162C372.917 195.162 373.201 195.085 373.433 194.931C373.665 194.777 373.842 194.556 373.963 194.267C374.083 193.978 374.144 193.633 374.144 193.23C374.144 192.837 374.084 192.49 373.966 192.19C373.848 191.889 373.673 191.653 373.441 191.483C373.209 191.312 372.922 191.227 372.581 191.227C372.226 191.227 371.93 191.317 371.693 191.497C371.459 191.677 371.283 191.919 371.164 192.222C371.048 192.525 370.99 192.861 370.99 193.23C370.99 193.609 371.049 193.944 371.168 194.235C371.289 194.524 371.466 194.751 371.7 194.917C371.937 195.08 372.231 195.162 372.581 195.162ZM378.689 196.114C378.163 196.114 377.71 195.998 377.328 195.766C376.95 195.531 376.657 195.205 376.451 194.786C376.248 194.364 376.146 193.874 376.146 193.315C376.146 192.757 376.248 192.264 376.451 191.838C376.657 191.41 376.944 191.076 377.311 190.837C377.68 190.595 378.111 190.474 378.603 190.474C378.887 190.474 379.168 190.522 379.445 190.616C379.722 190.711 379.974 190.865 380.201 191.078C380.429 191.289 380.61 191.568 380.745 191.916C380.88 192.264 380.947 192.693 380.947 193.202V193.557H376.743V192.832H380.095C380.095 192.525 380.033 192.25 379.91 192.009C379.789 191.767 379.617 191.576 379.392 191.437C379.169 191.297 378.906 191.227 378.603 191.227C378.27 191.227 377.981 191.31 377.737 191.476C377.495 191.639 377.31 191.852 377.179 192.115C377.049 192.378 376.984 192.66 376.984 192.96V193.443C376.984 193.855 377.055 194.204 377.197 194.491C377.341 194.775 377.542 194.991 377.797 195.141C378.053 195.287 378.35 195.361 378.689 195.361C378.909 195.361 379.108 195.33 379.285 195.268C379.465 195.205 379.62 195.11 379.75 194.984C379.881 194.857 379.981 194.698 380.052 194.509L380.862 194.736C380.777 195.01 380.633 195.252 380.432 195.46C380.231 195.666 379.982 195.827 379.686 195.943C379.39 196.057 379.058 196.114 378.689 196.114Z" fill="#816A72"/>
</g>
<g id="Production heading">
<circle id="Ellipse 28" cx="505" cy="61" r="4" fill="#553E95"/>
<path id="Production" d="M476.057 51V42.2727H479.006C479.69 42.2727 480.25 42.3963 480.685 42.6435C481.122 42.8878 481.446 43.2188 481.656 43.6364C481.866 44.054 481.972 44.5199 481.972 45.0341C481.972 45.5483 481.866 46.0156 481.656 46.4361C481.449 46.8565 481.128 47.1918 480.693 47.4418C480.259 47.6889 479.702 47.8125 479.023 47.8125H476.909V46.875H478.989C479.457 46.875 479.834 46.794 480.118 46.6321C480.402 46.4702 480.608 46.2514 480.736 45.9759C480.866 45.6974 480.932 45.3835 480.932 45.0341C480.932 44.6847 480.866 44.3722 480.736 44.0966C480.608 43.821 480.401 43.6051 480.114 43.4489C479.827 43.2898 479.446 43.2102 478.972 43.2102H477.114V51H476.057ZM483.418 51V44.4545H484.389V45.4432H484.457C484.577 45.1193 484.793 44.8565 485.105 44.6548C485.418 44.4531 485.77 44.3523 486.162 44.3523C486.236 44.3523 486.328 44.3537 486.439 44.3565C486.55 44.3594 486.634 44.3636 486.69 44.3693V45.392C486.656 45.3835 486.578 45.3707 486.456 45.3537C486.337 45.3338 486.21 45.3239 486.077 45.3239C485.759 45.3239 485.474 45.3906 485.224 45.5241C484.977 45.6548 484.781 45.8366 484.636 46.0696C484.494 46.2997 484.423 46.5625 484.423 46.858V51H483.418ZM490.222 51.1364C489.631 51.1364 489.113 50.9957 488.667 50.7145C488.224 50.4332 487.877 50.0398 487.627 49.5341C487.38 49.0284 487.256 48.4375 487.256 47.7614C487.256 47.0795 487.38 46.4844 487.627 45.9759C487.877 45.4673 488.224 45.0724 488.667 44.7912C489.113 44.5099 489.631 44.3693 490.222 44.3693C490.813 44.3693 491.33 44.5099 491.773 44.7912C492.22 45.0724 492.566 45.4673 492.813 45.9759C493.063 46.4844 493.188 47.0795 493.188 47.7614C493.188 48.4375 493.063 49.0284 492.813 49.5341C492.566 50.0398 492.22 50.4332 491.773 50.7145C491.33 50.9957 490.813 51.1364 490.222 51.1364ZM490.222 50.233C490.671 50.233 491.041 50.1179 491.33 49.8878C491.62 49.6577 491.835 49.3551 491.974 48.9801C492.113 48.6051 492.183 48.1989 492.183 47.7614C492.183 47.3239 492.113 46.9162 491.974 46.5384C491.835 46.1605 491.62 45.8551 491.33 45.6222C491.041 45.3892 490.671 45.2727 490.222 45.2727C489.773 45.2727 489.404 45.3892 489.114 45.6222C488.825 45.8551 488.61 46.1605 488.471 46.5384C488.332 46.9162 488.262 47.3239 488.262 47.7614C488.262 48.1989 488.332 48.6051 488.471 48.9801C488.61 49.3551 488.825 49.6577 489.114 49.8878C489.404 50.1179 489.773 50.233 490.222 50.233ZM497.075 51.1364C496.53 51.1364 496.048 50.9986 495.63 50.723C495.213 50.4446 494.886 50.0526 494.65 49.5469C494.415 49.0384 494.297 48.4375 494.297 47.7443C494.297 47.0568 494.415 46.4602 494.65 45.9545C494.886 45.4489 495.214 45.0582 495.635 44.7827C496.055 44.5071 496.541 44.3693 497.092 44.3693C497.518 44.3693 497.855 44.4403 498.102 44.5824C498.352 44.7216 498.542 44.8807 498.673 45.0597C498.807 45.2358 498.91 45.3807 498.984 45.4943H499.069V42.2727H500.075V51H499.103V49.9943H498.984C498.91 50.1136 498.805 50.2642 498.669 50.446C498.532 50.625 498.338 50.7855 498.085 50.9276C497.832 51.0668 497.495 51.1364 497.075 51.1364ZM497.211 50.233C497.615 50.233 497.956 50.1278 498.234 49.9176C498.513 49.7045 498.724 49.4105 498.869 49.0355C499.014 48.6577 499.086 48.2216 499.086 47.7273C499.086 47.2386 499.015 46.8111 498.873 46.4446C498.731 46.0753 498.521 45.7884 498.243 45.5838C497.964 45.3764 497.62 45.2727 497.211 45.2727C496.785 45.2727 496.43 45.3821 496.146 45.6009C495.865 45.8168 495.653 46.1108 495.511 46.483C495.372 46.8523 495.302 47.267 495.302 47.7273C495.302 48.1932 495.373 48.6165 495.515 48.9972C495.66 49.375 495.873 49.6761 496.155 49.9006C496.439 50.1222 496.791 50.233 497.211 50.233ZM506.062 48.3239V44.4545H507.067V51H506.062V49.892H505.993C505.84 50.2244 505.601 50.5071 505.277 50.7401C504.954 50.9702 504.545 51.0852 504.05 51.0852C503.641 51.0852 503.277 50.9957 502.959 50.8168C502.641 50.6349 502.391 50.3622 502.209 49.9986C502.027 49.6321 501.937 49.1705 501.937 48.6136V44.4545H502.942V48.5455C502.942 49.0227 503.076 49.4034 503.343 49.6875C503.613 49.9716 503.956 50.1136 504.374 50.1136C504.624 50.1136 504.878 50.0497 505.137 49.9219C505.398 49.794 505.617 49.598 505.793 49.3338C505.972 49.0696 506.062 48.733 506.062 48.3239ZM511.448 51.1364C510.835 51.1364 510.306 50.9915 509.863 50.7017C509.42 50.4119 509.079 50.0128 508.84 49.5043C508.602 48.9957 508.482 48.4148 508.482 47.7614C508.482 47.0966 508.605 46.5099 508.849 46.0014C509.096 45.4901 509.44 45.0909 509.88 44.804C510.323 44.5142 510.84 44.3693 511.431 44.3693C511.891 44.3693 512.306 44.4545 512.676 44.625C513.045 44.7955 513.347 45.0341 513.583 45.3409C513.819 45.6477 513.965 46.0057 514.022 46.4148H513.016C512.94 46.1165 512.769 45.8523 512.505 45.6222C512.244 45.3892 511.891 45.2727 511.448 45.2727C511.056 45.2727 510.713 45.375 510.417 45.5795C510.124 45.7812 509.896 46.0668 509.731 46.4361C509.569 46.8026 509.488 47.233 509.488 47.7273C509.488 48.233 509.568 48.6733 509.727 49.0483C509.889 49.4233 510.116 49.7145 510.409 49.9219C510.704 50.1293 511.051 50.233 511.448 50.233C511.71 50.233 511.947 50.1875 512.16 50.0966C512.373 50.0057 512.553 49.875 512.701 49.7045C512.849 49.5341 512.954 49.3295 513.016 49.0909H514.022C513.965 49.4773 513.825 49.8253 513.6 50.1349C513.379 50.4418 513.085 50.6861 512.718 50.8679C512.355 51.0469 511.931 51.1364 511.448 51.1364ZM518.219 44.4545V45.3068H514.827V44.4545H518.219ZM515.816 42.8864H516.821V49.125C516.821 49.4091 516.862 49.6222 516.945 49.7642C517.03 49.9034 517.138 49.9972 517.269 50.0455C517.402 50.0909 517.543 50.1136 517.691 50.1136C517.801 50.1136 517.892 50.108 517.963 50.0966C518.034 50.0824 518.091 50.071 518.134 50.0625L518.338 50.9659C518.27 50.9915 518.175 51.017 518.053 51.0426C517.931 51.071 517.776 51.0852 517.588 51.0852C517.304 51.0852 517.026 51.0241 516.753 50.902C516.483 50.7798 516.259 50.5938 516.08 50.3438C515.904 50.0938 515.816 49.7784 515.816 49.3977V42.8864ZM519.612 51V44.4545H520.617V51H519.612ZM520.123 43.3636C519.927 43.3636 519.758 43.2969 519.616 43.1634C519.477 43.0298 519.407 42.8693 519.407 42.6818C519.407 42.4943 519.477 42.3338 519.616 42.2003C519.758 42.0668 519.927 42 520.123 42C520.319 42 520.487 42.0668 520.626 42.2003C520.768 42.3338 520.839 42.4943 520.839 42.6818C520.839 42.8693 520.768 43.0298 520.626 43.1634C520.487 43.2969 520.319 43.3636 520.123 43.3636ZM524.998 51.1364C524.408 51.1364 523.889 50.9957 523.443 50.7145C523 50.4332 522.653 50.0398 522.403 49.5341C522.156 49.0284 522.033 48.4375 522.033 47.7614C522.033 47.0795 522.156 46.4844 522.403 45.9759C522.653 45.4673 523 45.0724 523.443 44.7912C523.889 44.5099 524.408 44.3693 524.998 44.3693C525.589 44.3693 526.106 44.5099 526.55 44.7912C526.996 45.0724 527.342 45.4673 527.589 45.9759C527.839 46.4844 527.964 47.0795 527.964 47.7614C527.964 48.4375 527.839 49.0284 527.589 49.5341C527.342 50.0398 526.996 50.4332 526.55 50.7145C526.106 50.9957 525.589 51.1364 524.998 51.1364ZM524.998 50.233C525.447 50.233 525.817 50.1179 526.106 49.8878C526.396 49.6577 526.611 49.3551 526.75 48.9801C526.889 48.6051 526.959 48.1989 526.959 47.7614C526.959 47.3239 526.889 46.9162 526.75 46.5384C526.611 46.1605 526.396 45.8551 526.106 45.6222C525.817 45.3892 525.447 45.2727 524.998 45.2727C524.55 45.2727 524.18 45.3892 523.89 45.6222C523.601 45.8551 523.386 46.1605 523.247 46.5384C523.108 46.9162 523.038 47.3239 523.038 47.7614C523.038 48.1989 523.108 48.6051 523.247 48.9801C523.386 49.3551 523.601 49.6577 523.89 49.8878C524.18 50.1179 524.55 50.233 524.998 50.233ZM530.385 47.0625V51H529.38V44.4545H530.351V45.4773H530.436C530.59 45.1449 530.823 44.8778 531.135 44.6761C531.448 44.4716 531.851 44.3693 532.345 44.3693C532.789 44.3693 533.176 44.4602 533.509 44.642C533.841 44.821 534.1 45.0938 534.284 45.4602C534.469 45.8239 534.561 46.2841 534.561 46.8409V51H533.556V46.9091C533.556 46.3949 533.422 45.9943 533.155 45.7074C532.888 45.4176 532.522 45.2727 532.056 45.2727C531.735 45.2727 531.448 45.3423 531.195 45.4815C530.945 45.6207 530.747 45.8239 530.603 46.0909C530.458 46.358 530.385 46.6818 530.385 47.0625Z" fill="#816A72"/>
<path id="Create &#38; deliver" d="M496.545 124H495.664C495.612 123.747 495.521 123.524 495.391 123.332C495.263 123.141 495.107 122.98 494.922 122.849C494.74 122.717 494.537 122.617 494.315 122.551C494.092 122.485 493.86 122.452 493.619 122.452C493.178 122.452 492.779 122.563 492.422 122.786C492.067 123.008 491.784 123.336 491.573 123.769C491.365 124.202 491.261 124.734 491.261 125.364C491.261 125.993 491.365 126.525 491.573 126.958C491.784 127.391 492.067 127.719 492.422 127.942C492.779 128.164 493.178 128.276 493.619 128.276C493.86 128.276 494.092 128.242 494.315 128.176C494.537 128.11 494.74 128.012 494.922 127.881C495.107 127.749 495.263 127.587 495.391 127.395C495.521 127.201 495.612 126.978 495.664 126.727H496.545C496.479 127.099 496.358 127.432 496.183 127.725C496.007 128.019 495.79 128.268 495.529 128.474C495.269 128.678 494.976 128.833 494.652 128.94C494.33 129.046 493.986 129.099 493.619 129.099C492.998 129.099 492.447 128.948 491.964 128.645C491.481 128.342 491.101 127.911 490.824 127.352C490.547 126.794 490.409 126.131 490.409 125.364C490.409 124.597 490.547 123.934 490.824 123.375C491.101 122.816 491.481 122.385 491.964 122.082C492.447 121.779 492.998 121.628 493.619 121.628C493.986 121.628 494.33 121.681 494.652 121.788C494.976 121.894 495.269 122.05 495.529 122.256C495.79 122.46 496.007 122.709 496.183 123.002C496.358 123.293 496.479 123.626 496.545 124ZM497.754 129V123.545H498.564V124.369H498.621C498.72 124.099 498.9 123.88 499.161 123.712C499.421 123.544 499.715 123.46 500.041 123.46C500.103 123.46 500.18 123.461 500.272 123.464C500.364 123.466 500.434 123.47 500.482 123.474V124.327C500.453 124.32 500.388 124.309 500.286 124.295C500.187 124.278 500.082 124.27 499.97 124.27C499.705 124.27 499.468 124.326 499.26 124.437C499.054 124.546 498.891 124.697 498.77 124.891C498.652 125.083 498.592 125.302 498.592 125.548V129H497.754ZM503.496 129.114C502.97 129.114 502.517 128.998 502.136 128.766C501.757 128.531 501.465 128.205 501.259 127.786C501.055 127.364 500.953 126.874 500.953 126.315C500.953 125.757 501.055 125.264 501.259 124.838C501.465 124.41 501.751 124.076 502.118 123.837C502.487 123.595 502.918 123.474 503.411 123.474C503.695 123.474 503.975 123.522 504.252 123.616C504.529 123.711 504.781 123.865 505.009 124.078C505.236 124.289 505.417 124.568 505.552 124.916C505.687 125.264 505.754 125.693 505.754 126.202V126.557H501.55V125.832H504.902C504.902 125.525 504.841 125.25 504.718 125.009C504.597 124.767 504.424 124.576 504.199 124.437C503.977 124.297 503.714 124.227 503.411 124.227C503.077 124.227 502.788 124.31 502.544 124.476C502.303 124.639 502.117 124.852 501.987 125.115C501.857 125.378 501.791 125.66 501.791 125.96V126.443C501.791 126.855 501.862 127.204 502.004 127.491C502.149 127.775 502.349 127.991 502.605 128.141C502.86 128.287 503.157 128.361 503.496 128.361C503.716 128.361 503.915 128.33 504.093 128.268C504.272 128.205 504.428 128.11 504.558 127.984C504.688 127.857 504.789 127.698 504.86 127.509L505.669 127.736C505.584 128.01 505.441 128.252 505.24 128.46C505.038 128.666 504.79 128.827 504.494 128.943C504.198 129.057 503.865 129.114 503.496 129.114ZM508.534 129.128C508.189 129.128 507.875 129.063 507.593 128.933C507.312 128.8 507.088 128.609 506.922 128.361C506.757 128.11 506.674 127.807 506.674 127.452C506.674 127.139 506.735 126.886 506.858 126.692C506.981 126.495 507.146 126.341 507.352 126.23C507.558 126.119 507.785 126.036 508.034 125.982C508.285 125.925 508.537 125.88 508.79 125.847C509.122 125.804 509.39 125.772 509.596 125.751C509.805 125.727 509.956 125.688 510.051 125.634C510.148 125.579 510.196 125.484 510.196 125.349V125.321C510.196 124.971 510.101 124.698 509.909 124.504C509.719 124.31 509.432 124.213 509.046 124.213C508.646 124.213 508.332 124.301 508.105 124.476C507.878 124.651 507.718 124.838 507.625 125.037L506.83 124.753C506.972 124.421 507.161 124.163 507.398 123.979C507.637 123.792 507.898 123.661 508.179 123.588C508.463 123.512 508.743 123.474 509.017 123.474C509.193 123.474 509.394 123.496 509.621 123.538C509.851 123.579 510.072 123.663 510.285 123.79C510.501 123.918 510.679 124.111 510.821 124.369C510.963 124.627 511.034 124.973 511.034 125.406V129H510.196V128.261H510.154C510.097 128.38 510.002 128.506 509.87 128.641C509.737 128.776 509.561 128.891 509.341 128.986C509.12 129.08 508.852 129.128 508.534 129.128ZM508.662 128.375C508.994 128.375 509.273 128.31 509.5 128.18C509.73 128.049 509.903 127.881 510.019 127.675C510.137 127.469 510.196 127.253 510.196 127.026V126.259C510.161 126.301 510.083 126.34 509.962 126.376C509.844 126.409 509.706 126.438 509.55 126.464C509.396 126.488 509.246 126.509 509.099 126.528C508.955 126.545 508.837 126.559 508.748 126.571C508.53 126.599 508.326 126.646 508.137 126.71C507.95 126.771 507.798 126.865 507.682 126.99C507.569 127.113 507.512 127.281 507.512 127.494C507.512 127.786 507.619 128.006 507.835 128.155C508.053 128.302 508.329 128.375 508.662 128.375ZM514.836 123.545V124.256H512.01V123.545H514.836ZM512.833 122.239H513.672V127.438C513.672 127.674 513.706 127.852 513.774 127.97C513.846 128.086 513.935 128.164 514.044 128.205C514.156 128.242 514.273 128.261 514.396 128.261C514.488 128.261 514.564 128.257 514.623 128.247C514.682 128.235 514.73 128.226 514.765 128.219L514.936 128.972C514.879 128.993 514.8 129.014 514.698 129.036C514.596 129.059 514.467 129.071 514.311 129.071C514.074 129.071 513.842 129.02 513.615 128.918C513.39 128.817 513.203 128.661 513.054 128.453C512.907 128.245 512.833 127.982 512.833 127.665V122.239ZM518.225 129.114C517.7 129.114 517.246 128.998 516.865 128.766C516.486 128.531 516.194 128.205 515.988 127.786C515.784 127.364 515.683 126.874 515.683 126.315C515.683 125.757 515.784 125.264 515.988 124.838C516.194 124.41 516.48 124.076 516.847 123.837C517.217 123.595 517.648 123.474 518.14 123.474C518.424 123.474 518.705 123.522 518.982 123.616C519.259 123.711 519.511 123.865 519.738 124.078C519.965 124.289 520.146 124.568 520.281 124.916C520.416 125.264 520.484 125.693 520.484 126.202V126.557H516.279V125.832H519.632C519.632 125.525 519.57 125.25 519.447 125.009C519.326 124.767 519.153 124.576 518.928 124.437C518.706 124.297 518.443 124.227 518.14 124.227C517.806 124.227 517.517 124.31 517.274 124.476C517.032 124.639 516.846 124.852 516.716 125.115C516.586 125.378 516.521 125.66 516.521 125.96V126.443C516.521 126.855 516.592 127.204 516.734 127.491C516.878 127.775 517.078 127.991 517.334 128.141C517.59 128.287 517.887 128.361 518.225 128.361C518.445 128.361 518.644 128.33 518.822 128.268C519.002 128.205 519.157 128.11 519.287 127.984C519.417 127.857 519.518 127.698 519.589 127.509L520.399 127.736C520.313 128.01 520.17 128.252 519.969 128.46C519.768 128.666 519.519 128.827 519.223 128.943C518.927 129.057 518.595 129.114 518.225 129.114ZM526.431 129.099C525.953 129.099 525.541 129.012 525.195 128.837C524.849 128.661 524.583 128.421 524.396 128.116C524.209 127.81 524.115 127.461 524.115 127.068C524.115 126.765 524.179 126.496 524.307 126.262C524.437 126.025 524.616 125.806 524.843 125.605C525.073 125.402 525.337 125.198 525.635 124.994L526.686 124.213C526.892 124.078 527.057 123.934 527.18 123.78C527.306 123.626 527.368 123.425 527.368 123.176C527.368 122.991 527.287 122.813 527.123 122.64C526.962 122.467 526.75 122.381 526.488 122.381C526.303 122.381 526.14 122.428 525.998 122.523C525.858 122.615 525.748 122.733 525.667 122.878C525.589 123.02 525.55 123.167 525.55 123.318C525.55 123.489 525.596 123.661 525.689 123.837C525.783 124.009 525.903 124.187 526.047 124.369C526.194 124.549 526.346 124.734 526.502 124.923L529.84 129H528.831L526.076 125.676C525.82 125.368 525.588 125.089 525.38 124.838C525.171 124.587 525.006 124.34 524.883 124.096C524.759 123.852 524.698 123.588 524.698 123.304C524.698 122.977 524.77 122.691 524.914 122.445C525.061 122.196 525.266 122.003 525.529 121.866C525.794 121.726 526.104 121.656 526.459 121.656C526.824 121.656 527.137 121.727 527.4 121.869C527.663 122.009 527.865 122.195 528.008 122.427C528.15 122.656 528.221 122.906 528.221 123.176C528.221 123.524 528.134 123.826 527.961 124.082C527.789 124.337 527.553 124.575 527.255 124.795L525.806 125.875C525.479 126.116 525.258 126.351 525.142 126.578C525.026 126.805 524.968 126.969 524.968 127.068C524.968 127.295 525.027 127.507 525.145 127.704C525.264 127.9 525.431 128.059 525.646 128.18C525.861 128.3 526.114 128.361 526.402 128.361C526.677 128.361 526.945 128.303 527.205 128.187C527.465 128.068 527.701 127.898 527.912 127.675C528.125 127.453 528.293 127.185 528.416 126.873C528.541 126.56 528.604 126.209 528.604 125.818H529.414C529.414 126.301 529.358 126.695 529.247 127.001C529.136 127.306 529.01 127.545 528.87 127.718C528.731 127.891 528.618 128.02 528.533 128.105C528.505 128.141 528.479 128.176 528.455 128.212C528.431 128.247 528.405 128.283 528.377 128.318C528.142 128.581 527.847 128.777 527.489 128.908C527.132 129.036 526.779 129.099 526.431 129.099ZM495.782 145.114C495.327 145.114 494.926 144.999 494.578 144.769C494.23 144.537 493.958 144.21 493.761 143.789C493.565 143.365 493.467 142.865 493.467 142.287C493.467 141.714 493.565 141.217 493.761 140.795C493.958 140.374 494.231 140.049 494.582 139.819C494.932 139.589 495.337 139.474 495.796 139.474C496.151 139.474 496.432 139.534 496.638 139.652C496.846 139.768 497.005 139.901 497.114 140.05C497.225 140.196 497.311 140.317 497.373 140.412H497.444V137.727H498.282V145H497.472V144.162H497.373C497.311 144.261 497.224 144.387 497.11 144.538C496.996 144.687 496.834 144.821 496.624 144.94C496.413 145.056 496.132 145.114 495.782 145.114ZM495.896 144.361C496.232 144.361 496.516 144.273 496.748 144.098C496.98 143.92 497.156 143.675 497.277 143.363C497.398 143.048 497.458 142.685 497.458 142.273C497.458 141.866 497.399 141.509 497.281 141.204C497.162 140.896 496.987 140.657 496.755 140.487C496.523 140.314 496.237 140.227 495.896 140.227C495.54 140.227 495.245 140.318 495.008 140.501C494.773 140.681 494.597 140.926 494.479 141.236C494.363 141.544 494.305 141.889 494.305 142.273C494.305 142.661 494.364 143.014 494.482 143.331C494.603 143.646 494.781 143.897 495.015 144.084C495.252 144.268 495.545 144.361 495.896 144.361ZM502.12 145.114C501.595 145.114 501.141 144.998 500.76 144.766C500.381 144.531 500.089 144.205 499.883 143.786C499.679 143.364 499.578 142.874 499.578 142.315C499.578 141.757 499.679 141.264 499.883 140.838C500.089 140.41 500.375 140.076 500.742 139.837C501.112 139.595 501.543 139.474 502.035 139.474C502.319 139.474 502.6 139.522 502.877 139.616C503.154 139.711 503.406 139.865 503.633 140.078C503.86 140.289 504.041 140.568 504.176 140.916C504.311 141.264 504.379 141.693 504.379 142.202V142.557H500.174V141.832H503.526C503.526 141.525 503.465 141.25 503.342 141.009C503.221 140.767 503.048 140.576 502.823 140.437C502.601 140.297 502.338 140.227 502.035 140.227C501.701 140.227 501.412 140.31 501.168 140.476C500.927 140.639 500.741 140.852 500.611 141.115C500.481 141.378 500.416 141.66 500.416 141.96V142.443C500.416 142.855 500.487 143.204 500.629 143.491C500.773 143.775 500.973 143.991 501.229 144.141C501.485 144.287 501.782 144.361 502.12 144.361C502.34 144.361 502.539 144.33 502.717 144.268C502.897 144.205 503.052 144.11 503.182 143.984C503.312 143.857 503.413 143.698 503.484 143.509L504.293 143.736C504.208 144.01 504.065 144.252 503.864 144.46C503.663 144.666 503.414 144.827 503.118 144.943C502.822 145.057 502.49 145.114 502.12 145.114ZM506.392 137.727V145H505.554V137.727H506.392ZM507.827 145V139.545H508.665V145H507.827ZM508.253 138.636C508.089 138.636 507.949 138.581 507.83 138.469C507.714 138.358 507.656 138.224 507.656 138.068C507.656 137.912 507.714 137.778 507.83 137.667C507.949 137.556 508.089 137.5 508.253 137.5C508.416 137.5 508.556 137.556 508.672 137.667C508.79 137.778 508.849 137.912 508.849 138.068C508.849 138.224 508.79 138.358 508.672 138.469C508.556 138.581 508.416 138.636 508.253 138.636ZM514.56 139.545L512.543 145H511.691L509.674 139.545H510.583L512.088 143.892H512.145L513.651 139.545H514.56ZM517.658 145.114C517.132 145.114 516.679 144.998 516.298 144.766C515.919 144.531 515.626 144.205 515.42 143.786C515.217 143.364 515.115 142.874 515.115 142.315C515.115 141.757 515.217 141.264 515.42 140.838C515.626 140.41 515.913 140.076 516.28 139.837C516.649 139.595 517.08 139.474 517.572 139.474C517.857 139.474 518.137 139.522 518.414 139.616C518.691 139.711 518.943 139.865 519.17 140.078C519.398 140.289 519.579 140.568 519.714 140.916C519.849 141.264 519.916 141.693 519.916 142.202V142.557H515.712V141.832H519.064C519.064 141.525 519.002 141.25 518.879 141.009C518.759 140.767 518.586 140.576 518.361 140.437C518.138 140.297 517.875 140.227 517.572 140.227C517.239 140.227 516.95 140.31 516.706 140.476C516.465 140.639 516.279 140.852 516.148 141.115C516.018 141.378 515.953 141.66 515.953 141.96V142.443C515.953 142.855 516.024 143.204 516.166 143.491C516.311 143.775 516.511 143.991 516.766 144.141C517.022 144.287 517.319 144.361 517.658 144.361C517.878 144.361 518.077 144.33 518.254 144.268C518.434 144.205 518.589 144.11 518.719 143.984C518.85 143.857 518.95 143.698 519.021 143.509L519.831 143.736C519.746 144.01 519.603 144.252 519.401 144.46C519.2 144.666 518.951 144.827 518.656 144.943C518.36 145.057 518.027 145.114 517.658 145.114ZM521.091 145V139.545H521.901V140.369H521.958C522.057 140.099 522.237 139.88 522.497 139.712C522.758 139.544 523.051 139.46 523.378 139.46C523.44 139.46 523.516 139.461 523.609 139.464C523.701 139.466 523.771 139.47 523.818 139.474V140.327C523.79 140.32 523.725 140.309 523.623 140.295C523.524 140.278 523.418 140.27 523.307 140.27C523.042 140.27 522.805 140.326 522.597 140.437C522.391 140.546 522.227 140.697 522.107 140.891C521.988 141.083 521.929 141.302 521.929 141.548V145H521.091Z" fill="#816A72"/>
</g>
<g id="Goal heading">
<circle id="Ellipse 25" cx="69" cy="184" r="4" fill="#553E95"/>
<path id="Goal" d="M63.0227 168C62.929 167.713 62.8054 167.456 62.652 167.229C62.5014 166.999 62.321 166.803 62.1108 166.641C61.9034 166.479 61.6676 166.355 61.4034 166.27C61.1392 166.185 60.8494 166.142 60.5341 166.142C60.017 166.142 59.5469 166.276 59.1236 166.543C58.7003 166.81 58.3636 167.203 58.1136 167.723C57.8636 168.243 57.7386 168.881 57.7386 169.636C57.7386 170.392 57.8651 171.03 58.1179 171.55C58.3707 172.07 58.7131 172.463 59.1449 172.73C59.5767 172.997 60.0625 173.131 60.6023 173.131C61.1023 173.131 61.5426 173.024 61.9233 172.811C62.3068 172.595 62.6051 172.291 62.8182 171.899C63.0341 171.504 63.142 171.04 63.142 170.506L63.4659 170.574H60.8409V169.636H64.1648V170.574C64.1648 171.293 64.0114 171.918 63.7045 172.449C63.4006 172.98 62.9801 173.392 62.4432 173.685C61.9091 173.974 61.2955 174.119 60.6023 174.119C59.8295 174.119 59.1506 173.938 58.5653 173.574C57.983 173.21 57.5284 172.693 57.2017 172.023C56.8778 171.352 56.7159 170.557 56.7159 169.636C56.7159 168.946 56.8082 168.325 56.9929 167.774C57.1804 167.22 57.4446 166.749 57.7855 166.359C58.1264 165.97 58.5298 165.672 58.9957 165.464C59.4616 165.257 59.9744 165.153 60.5341 165.153C60.9943 165.153 61.4233 165.223 61.821 165.362C62.2216 165.499 62.5781 165.693 62.8906 165.946C63.206 166.196 63.4688 166.496 63.679 166.845C63.8892 167.192 64.0341 167.577 64.1136 168H63.0227ZM68.3775 174.136C67.7866 174.136 67.2681 173.996 66.8221 173.714C66.3789 173.433 66.0323 173.04 65.7823 172.534C65.5352 172.028 65.4116 171.437 65.4116 170.761C65.4116 170.08 65.5352 169.484 65.7823 168.976C66.0323 168.467 66.3789 168.072 66.8221 167.791C67.2681 167.51 67.7866 167.369 68.3775 167.369C68.9684 167.369 69.4855 167.51 69.9287 167.791C70.3747 168.072 70.7213 168.467 70.9684 168.976C71.2184 169.484 71.3434 170.08 71.3434 170.761C71.3434 171.437 71.2184 172.028 70.9684 172.534C70.7213 173.04 70.3747 173.433 69.9287 173.714C69.4855 173.996 68.9684 174.136 68.3775 174.136ZM68.3775 173.233C68.8264 173.233 69.1957 173.118 69.4855 172.888C69.7752 172.658 69.9897 172.355 70.1289 171.98C70.2681 171.605 70.3377 171.199 70.3377 170.761C70.3377 170.324 70.2681 169.916 70.1289 169.538C69.9897 169.161 69.7752 168.855 69.4855 168.622C69.1957 168.389 68.8264 168.273 68.3775 168.273C67.9287 168.273 67.5593 168.389 67.2696 168.622C66.9798 168.855 66.7653 169.161 66.6261 169.538C66.4869 169.916 66.4173 170.324 66.4173 170.761C66.4173 171.199 66.4869 171.605 66.6261 171.98C66.7653 172.355 66.9798 172.658 67.2696 172.888C67.5593 173.118 67.9287 173.233 68.3775 173.233ZM74.6847 174.153C74.2699 174.153 73.8935 174.075 73.5555 173.919C73.2174 173.76 72.9489 173.531 72.7501 173.233C72.5512 172.932 72.4518 172.568 72.4518 172.142C72.4518 171.767 72.5256 171.463 72.6734 171.23C72.8211 170.994 73.0185 170.81 73.2657 170.676C73.5128 170.543 73.7856 170.443 74.0839 170.378C74.385 170.31 74.6876 170.256 74.9915 170.216C75.3893 170.165 75.7117 170.126 75.9589 170.101C76.2089 170.072 76.3907 170.026 76.5043 169.96C76.6208 169.895 76.679 169.781 76.679 169.619V169.585C76.679 169.165 76.564 168.838 76.3339 168.605C76.1066 168.372 75.7614 168.256 75.2984 168.256C74.8182 168.256 74.4418 168.361 74.1691 168.571C73.8964 168.781 73.7046 169.006 73.5938 169.244L72.6393 168.903C72.8097 168.506 73.037 168.196 73.3211 167.974C73.608 167.75 73.9205 167.594 74.2586 167.506C74.5995 167.415 74.9347 167.369 75.2643 167.369C75.4745 167.369 75.716 167.395 75.9887 167.446C76.2643 167.494 76.5299 167.595 76.7856 167.749C77.0441 167.902 77.2586 168.134 77.429 168.443C77.5995 168.753 77.6847 169.168 77.6847 169.688V174H76.679V173.114H76.6279C76.5597 173.256 76.4461 173.408 76.287 173.57C76.1279 173.732 75.9163 173.869 75.652 173.983C75.3878 174.097 75.0654 174.153 74.6847 174.153ZM74.8381 173.25C75.2359 173.25 75.5711 173.172 75.8438 173.016C76.1194 172.859 76.3268 172.658 76.466 172.411C76.608 172.163 76.679 171.903 76.679 171.631V170.71C76.6364 170.761 76.5427 170.808 76.3978 170.851C76.2557 170.891 76.091 170.926 75.9035 170.957C75.7188 170.986 75.5384 171.011 75.3623 171.034C75.189 171.054 75.0484 171.071 74.9404 171.085C74.679 171.119 74.4347 171.175 74.2074 171.251C73.983 171.325 73.8012 171.437 73.662 171.588C73.5256 171.736 73.4574 171.937 73.4574 172.193C73.4574 172.543 73.5867 172.807 73.8452 172.986C74.1066 173.162 74.4376 173.25 74.8381 173.25ZM80.406 165.273V174H79.4003V165.273H80.406Z" fill="#816A72"/>
<path id="Define &#226;&#128;&#168;Outcomes" d="M55.6916 225H53.4473V217.727H55.791C56.4965 217.727 57.1002 217.873 57.6021 218.164C58.104 218.453 58.4887 218.868 58.7562 219.411C59.0238 219.95 59.1575 220.597 59.1575 221.349C59.1575 222.107 59.0226 222.759 58.7527 223.306C58.4828 223.851 58.0898 224.27 57.5737 224.563C57.0576 224.854 56.4302 225 55.6916 225ZM54.328 224.219H55.6348C56.2361 224.219 56.7345 224.103 57.1298 223.871C57.5252 223.639 57.8199 223.308 58.014 222.88C58.2082 222.451 58.3052 221.941 58.3052 221.349C58.3052 220.762 58.2094 220.257 58.0176 219.833C57.8258 219.407 57.5394 219.08 57.1582 218.853C56.7771 218.623 56.3024 218.509 55.7342 218.509H54.328V224.219ZM62.7081 225.114C62.1825 225.114 61.7291 224.998 61.348 224.766C60.9692 224.531 60.6768 224.205 60.4709 223.786C60.2673 223.364 60.1655 222.874 60.1655 222.315C60.1655 221.757 60.2673 221.264 60.4709 220.838C60.6768 220.41 60.9633 220.076 61.3302 219.837C61.6996 219.595 62.1304 219.474 62.6229 219.474C62.9069 219.474 63.1875 219.522 63.4645 219.616C63.7415 219.711 63.9936 219.865 64.2209 220.078C64.4481 220.289 64.6292 220.568 64.7642 220.916C64.8991 221.264 64.9666 221.693 64.9666 222.202V222.557H60.7621V221.832H64.1143C64.1143 221.525 64.0528 221.25 63.9297 221.009C63.8089 220.767 63.6361 220.576 63.4112 220.437C63.1887 220.297 62.9259 220.227 62.6229 220.227C62.289 220.227 62.0002 220.31 61.7564 220.476C61.5149 220.639 61.3291 220.852 61.1988 221.115C61.0686 221.378 61.0035 221.66 61.0035 221.96V222.443C61.0035 222.855 61.0746 223.204 61.2166 223.491C61.361 223.775 61.5611 223.991 61.8167 224.141C62.0724 224.287 62.3695 224.361 62.7081 224.361C62.9282 224.361 63.1271 224.33 63.3047 224.268C63.4846 224.205 63.6397 224.11 63.7699 223.984C63.9001 223.857 64.0007 223.698 64.0717 223.509L64.8814 223.736C64.7961 224.01 64.6529 224.252 64.4517 224.46C64.2505 224.666 64.0019 224.827 63.7059 224.943C63.41 225.057 63.0774 225.114 62.7081 225.114ZM68.5704 219.545V220.256H65.6301V219.545H68.5704ZM66.5108 225V218.793C66.5108 218.48 66.5842 218.22 66.7309 218.011C66.8777 217.803 67.0683 217.647 67.3027 217.543C67.5371 217.438 67.7845 217.386 68.0449 217.386C68.2508 217.386 68.4189 217.403 68.5491 217.436C68.6793 217.469 68.7764 217.5 68.8403 217.528L68.5988 218.253C68.5562 218.239 68.497 218.221 68.4213 218.2C68.3479 218.178 68.2508 218.168 68.1301 218.168C67.8531 218.168 67.6531 218.237 67.53 218.377C67.4092 218.517 67.3488 218.722 67.3488 218.991V225H66.5108ZM69.645 225V219.545H70.483V225H69.645ZM70.0711 218.636C69.9078 218.636 69.7669 218.581 69.6485 218.469C69.5325 218.358 69.4745 218.224 69.4745 218.068C69.4745 217.912 69.5325 217.778 69.6485 217.667C69.7669 217.556 69.9078 217.5 70.0711 217.5C70.2345 217.5 70.3741 217.556 70.4901 217.667C70.6085 217.778 70.6677 217.912 70.6677 218.068C70.6677 218.224 70.6085 218.358 70.4901 218.469C70.3741 218.581 70.2345 218.636 70.0711 218.636ZM72.7561 221.719V225H71.918V219.545H72.7277V220.398H72.7987C72.9265 220.121 73.1207 219.898 73.3811 219.73C73.6415 219.56 73.9777 219.474 74.3896 219.474C74.7589 219.474 75.0821 219.55 75.3591 219.702C75.6361 219.851 75.8515 220.078 76.0054 220.384C76.1593 220.687 76.2362 221.07 76.2362 221.534V225H75.3981V221.591C75.3981 221.162 75.2869 220.829 75.0643 220.589C74.8418 220.348 74.5364 220.227 74.1481 220.227C73.8806 220.227 73.6415 220.285 73.4308 220.401C73.2225 220.517 73.0579 220.687 72.9372 220.909C72.8165 221.132 72.7561 221.402 72.7561 221.719ZM79.9546 225.114C79.429 225.114 78.9756 224.998 78.5945 224.766C78.2157 224.531 77.9233 224.205 77.7173 223.786C77.5137 223.364 77.4119 222.874 77.4119 222.315C77.4119 221.757 77.5137 221.264 77.7173 220.838C77.9233 220.41 78.2098 220.076 78.5767 219.837C78.946 219.595 79.3769 219.474 79.8693 219.474C80.1534 219.474 80.434 219.522 80.711 219.616C80.9879 219.711 81.2401 219.865 81.4673 220.078C81.6946 220.289 81.8757 220.568 82.0107 220.916C82.1456 221.264 82.2131 221.693 82.2131 222.202V222.557H78.0085V221.832H81.3608C81.3608 221.525 81.2993 221.25 81.1762 221.009C81.0554 220.767 80.8826 220.576 80.6577 220.437C80.4351 220.297 80.1724 220.227 79.8693 220.227C79.5355 220.227 79.2467 220.31 79.0029 220.476C78.7614 220.639 78.5755 220.852 78.4453 221.115C78.3151 221.378 78.25 221.66 78.25 221.96V222.443C78.25 222.855 78.321 223.204 78.4631 223.491C78.6075 223.775 78.8075 223.991 79.0632 224.141C79.3189 224.287 79.616 224.361 79.9546 224.361C80.1747 224.361 80.3736 224.33 80.5512 224.268C80.7311 224.205 80.8861 224.11 81.0164 223.984C81.1466 223.857 81.2472 223.698 81.3182 223.509L82.1279 223.736C82.0426 224.01 81.8994 224.252 81.6982 224.46C81.4969 224.666 81.2484 224.827 80.9524 224.943C80.6565 225.057 80.3239 225.114 79.9546 225.114ZM52.2215 237.364C52.2215 238.131 52.083 238.794 51.8061 239.352C51.5291 239.911 51.1491 240.342 50.6661 240.645C50.1832 240.948 49.6316 241.099 49.0113 241.099C48.391 241.099 47.8394 240.948 47.3565 240.645C46.8735 240.342 46.4936 239.911 46.2166 239.352C45.9396 238.794 45.8011 238.131 45.8011 237.364C45.8011 236.597 45.9396 235.934 46.2166 235.375C46.4936 234.816 46.8735 234.385 47.3565 234.082C47.8394 233.779 48.391 233.628 49.0113 233.628C49.6316 233.628 50.1832 233.779 50.6661 234.082C51.1491 234.385 51.5291 234.816 51.8061 235.375C52.083 235.934 52.2215 236.597 52.2215 237.364ZM51.3693 237.364C51.3693 236.734 51.2639 236.202 51.0532 235.769C50.8449 235.336 50.562 235.008 50.2045 234.786C49.8494 234.563 49.4517 234.452 49.0113 234.452C48.571 234.452 48.1721 234.563 47.8146 234.786C47.4595 235.008 47.1766 235.336 46.9659 235.769C46.7575 236.202 46.6534 236.734 46.6534 237.364C46.6534 237.993 46.7575 238.525 46.9659 238.958C47.1766 239.391 47.4595 239.719 47.8146 239.942C48.1721 240.164 48.571 240.276 49.0113 240.276C49.4517 240.276 49.8494 240.164 50.2045 239.942C50.562 239.719 50.8449 239.391 51.0532 238.958C51.2639 238.525 51.3693 237.993 51.3693 237.364ZM56.9262 238.77V235.545H57.7643V241H56.9262V240.077H56.8694C56.7416 240.354 56.5427 240.589 56.2728 240.783C56.0029 240.975 55.662 241.071 55.2501 241.071C54.9092 241.071 54.6061 240.996 54.341 240.847C54.0758 240.696 53.8675 240.469 53.716 240.165C53.5645 239.86 53.4887 239.475 53.4887 239.011V235.545H54.3268V238.955C54.3268 239.352 54.4381 239.67 54.6606 239.906C54.8855 240.143 55.172 240.261 55.52 240.261C55.7283 240.261 55.9402 240.208 56.1556 240.102C56.3734 239.995 56.5557 239.832 56.7025 239.612C56.8517 239.391 56.9262 239.111 56.9262 238.77ZM61.5714 235.545V236.256H58.7447V235.545H61.5714ZM59.5686 234.239H60.4067V239.438C60.4067 239.674 60.441 239.852 60.5096 239.97C60.5807 240.086 60.6706 240.164 60.7795 240.205C60.8908 240.242 61.008 240.261 61.1311 240.261C61.2234 240.261 61.2992 240.257 61.3584 240.247C61.4175 240.235 61.4649 240.226 61.5004 240.219L61.6709 240.972C61.614 240.993 61.5347 241.014 61.4329 241.036C61.3311 241.059 61.2021 241.071 61.0459 241.071C60.8091 241.071 60.5771 241.02 60.3498 240.918C60.1249 240.817 59.9379 240.661 59.7888 240.453C59.642 240.245 59.5686 239.982 59.5686 239.665V234.239ZM64.8894 241.114C64.378 241.114 63.9377 240.993 63.5684 240.751C63.1991 240.51 62.915 240.177 62.7161 239.754C62.5172 239.33 62.4178 238.846 62.4178 238.301C62.4178 237.747 62.5196 237.258 62.7232 236.835C62.9292 236.408 63.2156 236.076 63.5826 235.837C63.9519 235.595 64.3828 235.474 64.8752 235.474C65.2587 235.474 65.6044 235.545 65.9121 235.688C66.2199 235.83 66.472 236.028 66.6685 236.284C66.865 236.54 66.9869 236.838 67.0343 237.179H66.1962C66.1323 236.93 65.9903 236.71 65.7701 236.518C65.5523 236.324 65.2587 236.227 64.8894 236.227C64.5627 236.227 64.2762 236.312 64.03 236.483C63.7862 236.651 63.5956 236.889 63.4583 237.197C63.3233 237.502 63.2559 237.861 63.2559 238.273C63.2559 238.694 63.3222 239.061 63.4547 239.374C63.5897 239.686 63.7791 239.929 64.0229 240.102C64.2691 240.274 64.558 240.361 64.8894 240.361C65.1072 240.361 65.3049 240.323 65.4824 240.247C65.66 240.171 65.8103 240.062 65.9334 239.92C66.0565 239.778 66.1441 239.608 66.1962 239.409H67.0343C66.9869 239.731 66.8698 240.021 66.6827 240.279C66.4981 240.535 66.253 240.738 65.9476 240.89C65.6446 241.039 65.2919 241.114 64.8894 241.114ZM70.3753 241.114C69.8829 241.114 69.4509 240.996 69.0792 240.762C68.7099 240.528 68.421 240.2 68.2127 239.778C68.0067 239.357 67.9037 238.865 67.9037 238.301C67.9037 237.733 68.0067 237.237 68.2127 236.813C68.421 236.389 68.7099 236.06 69.0792 235.826C69.4509 235.592 69.8829 235.474 70.3753 235.474C70.8678 235.474 71.2986 235.592 71.668 235.826C72.0396 236.06 72.3285 236.389 72.5344 236.813C72.7428 237.237 72.8469 237.733 72.8469 238.301C72.8469 238.865 72.7428 239.357 72.5344 239.778C72.3285 240.2 72.0396 240.528 71.668 240.762C71.2986 240.996 70.8678 241.114 70.3753 241.114ZM70.3753 240.361C70.7494 240.361 71.0572 240.265 71.2986 240.073C71.5401 239.881 71.7189 239.629 71.8349 239.317C71.9509 239.004 72.0089 238.666 72.0089 238.301C72.0089 237.937 71.9509 237.597 71.8349 237.282C71.7189 236.967 71.5401 236.713 71.2986 236.518C71.0572 236.324 70.7494 236.227 70.3753 236.227C70.0013 236.227 69.6935 236.324 69.452 236.518C69.2106 236.713 69.0318 236.967 68.9158 237.282C68.7998 237.597 68.7418 237.937 68.7418 238.301C68.7418 238.666 68.7998 239.004 68.9158 239.317C69.0318 239.629 69.2106 239.881 69.452 240.073C69.6935 240.265 70.0013 240.361 70.3753 240.361ZM74.0262 241V235.545H74.8359V236.398H74.9069C75.0205 236.107 75.204 235.88 75.4573 235.719C75.7106 235.556 76.0149 235.474 76.37 235.474C76.7298 235.474 77.0293 235.556 77.2684 235.719C77.5099 235.88 77.6981 236.107 77.833 236.398H77.8899C78.0295 236.116 78.2391 235.892 78.5184 235.727C78.7978 235.558 79.1328 235.474 79.5234 235.474C80.0111 235.474 80.41 235.627 80.7201 235.933C81.0303 236.236 81.1853 236.708 81.1853 237.349V241H80.3472V237.349C80.3472 236.947 80.2372 236.659 80.017 236.487C79.7968 236.314 79.5376 236.227 79.2393 236.227C78.8558 236.227 78.5587 236.343 78.348 236.575C78.1373 236.805 78.0319 237.096 78.0319 237.449V241H77.1796V237.264C77.1796 236.954 77.079 236.704 76.8778 236.515C76.6766 236.323 76.4173 236.227 76.1001 236.227C75.8823 236.227 75.6787 236.285 75.4893 236.401C75.3023 236.517 75.1508 236.678 75.0347 236.884C74.9211 237.088 74.8643 237.323 74.8643 237.591V241H74.0262ZM84.9046 241.114C84.379 241.114 83.9256 240.998 83.5445 240.766C83.1657 240.531 82.8733 240.205 82.6673 239.786C82.4637 239.364 82.3619 238.874 82.3619 238.315C82.3619 237.757 82.4637 237.264 82.6673 236.838C82.8733 236.41 83.1598 236.076 83.5267 235.837C83.896 235.595 84.3269 235.474 84.8193 235.474C85.1034 235.474 85.384 235.522 85.661 235.616C85.9379 235.711 86.1901 235.865 86.4173 236.078C86.6446 236.289 86.8257 236.568 86.9607 236.916C87.0956 237.264 87.1631 237.693 87.1631 238.202V238.557H82.9585V237.832H86.3108C86.3108 237.525 86.2493 237.25 86.1262 237.009C86.0054 236.767 85.8326 236.576 85.6077 236.437C85.3852 236.297 85.1224 236.227 84.8193 236.227C84.4855 236.227 84.1967 236.31 83.9529 236.476C83.7114 236.639 83.5255 236.852 83.3953 237.115C83.2651 237.378 83.2 237.66 83.2 237.96V238.443C83.2 238.855 83.271 239.204 83.4131 239.491C83.5575 239.775 83.7575 239.991 84.0132 240.141C84.2689 240.287 84.566 240.361 84.9046 240.361C85.1247 240.361 85.3236 240.33 85.5012 240.268C85.6811 240.205 85.8361 240.11 85.9664 239.984C86.0966 239.857 86.1972 239.698 86.2682 239.509L87.0779 239.736C86.9926 240.01 86.8494 240.252 86.6482 240.46C86.4469 240.666 86.1984 240.827 85.9024 240.943C85.6065 241.057 85.2739 241.114 84.9046 241.114ZM92.2016 236.767L91.4487 236.98C91.4014 236.855 91.3316 236.733 91.2392 236.614C91.1493 236.494 91.0262 236.394 90.8699 236.316C90.7137 236.238 90.5136 236.199 90.2698 236.199C89.936 236.199 89.6578 236.276 89.4352 236.43C89.2151 236.581 89.105 236.774 89.105 237.009C89.105 237.217 89.1807 237.381 89.3323 237.502C89.4838 237.623 89.7205 237.723 90.0425 237.804L90.8521 238.003C91.3398 238.121 91.7032 238.302 91.9423 238.546C92.1815 238.788 92.301 239.099 92.301 239.48C92.301 239.793 92.2111 240.072 92.0311 240.318C91.8536 240.564 91.605 240.759 91.2854 240.901C90.9658 241.043 90.5941 241.114 90.1703 241.114C89.614 241.114 89.1535 240.993 88.7889 240.751C88.4244 240.51 88.1935 240.157 88.0965 239.693L88.8919 239.494C88.9677 239.788 89.1109 240.008 89.3216 240.155C89.5347 240.302 89.8129 240.375 90.1561 240.375C90.5468 240.375 90.8569 240.292 91.0865 240.126C91.3185 239.958 91.4345 239.757 91.4345 239.523C91.4345 239.333 91.3682 239.175 91.2357 239.047C91.1031 238.917 90.8995 238.82 90.6249 238.756L89.7158 238.543C89.2163 238.424 88.8493 238.241 88.6149 237.992C88.3829 237.741 88.2669 237.428 88.2669 237.051C88.2669 236.743 88.3533 236.471 88.5262 236.234C88.7013 235.998 88.9393 235.812 89.2399 235.677C89.543 235.542 89.8862 235.474 90.2698 235.474C90.8095 235.474 91.2333 235.593 91.5411 235.83C91.8512 236.066 92.0714 236.379 92.2016 236.767Z" fill="#816A72"/>
</g>
</g>
<defs>
<linearGradient id="paint0_linear_260_234" x1="252" y1="-16" x2="257.75" y2="232.052" gradientUnits="userSpaceOnUse">
<stop stop-color="#F0F0FD"/>
<stop offset="1" stop-color="white"/>
</linearGradient>
<linearGradient id="paint1_linear_260_234" x1="504.5" y1="31.0024" x2="505.5" y2="241.002" gradientUnits="userSpaceOnUse">
<stop stop-color="#816A72"/>
<stop offset="1" stop-color="white"/>
</linearGradient>
<linearGradient id="paint2_linear_260_234" x1="68.5" y1="33" x2="68.5" y2="257" gradientUnits="userSpaceOnUse">
<stop stop-color="#816A72"/>
<stop offset="1" stop-color="white"/>
</linearGradient>
<linearGradient id="paint3_linear_260_234" x1="358.5" y1="35.0024" x2="359.5" y2="245.002" gradientUnits="userSpaceOnUse">
<stop stop-color="#816A72"/>
<stop offset="1" stop-color="white"/>
</linearGradient>
<linearGradient id="paint4_linear_260_234" x1="213.5" y1="35.0024" x2="214.5" y2="245.002" gradientUnits="userSpaceOnUse">
<stop stop-color="#816A72"/>
<stop offset="1" stop-color="white"/>
</linearGradient>
</defs>
</svg>
