<svg width="30" height="30" viewBox="0 0 30 30" fill="none" xmlns="http://www.w3.org/2000/svg">
<g id="cut1-round-824-svgrepo-com 2" clip-path="url(#clip0_510_37)">
<g id="Page-1">
<g id="Dribbble-Light-Preview">
<g id="icons">
<path id="cut#1_round-[#824]" fill-rule="evenodd" clip-rule="evenodd" d="M18.03 12.501C18.03 12.054 17.6805 11.6909 17.2485 11.6909C16.8165 11.6909 16.467 12.054 16.467 12.501C16.467 12.948 16.8165 13.311 17.2485 13.311C17.6805 13.311 18.03 12.948 18.03 12.501ZM13.7445 14.7048L10.5 19.5H19.518L17.052 16.3455L15.9615 18.0073L13.7445 14.7048ZM22.5 30C23.328 30 24 29.328 24 28.5V27C24 26.172 23.328 25.5 22.5 25.5C21.672 25.5 21 26.172 21 27V28.5C21 29.328 21.672 30 22.5 30ZM24 21H21H10.5C9.672 21 9 20.328 9 19.5V12C9 11.172 8.328 10.5 7.5 10.5C6.672 10.5 6 11.172 6 12V21C6 22.656 7.3425 24 9 24H21H24H28.5C29.328 24 30 23.328 30 22.5C30 21.672 29.328 21 28.5 21H24ZM9 9H19.5C20.328 9 21 9.672 21 10.5V18C21 18.828 21.672 19.5 22.5 19.5C23.328 19.5 24 18.828 24 18V9C24 7.3425 22.6575 6 21 6H9H6H1.5C0.672 6 0 6.672 0 7.5C0 8.328 0.672 9 1.5 9H6H9ZM9 1.5V3C9 3.828 8.328 4.5 7.5 4.5C6.672 4.5 6 3.828 6 3V1.5C6 0.672 6.672 0 7.5 0C8.328 0 9 0.672 9 1.5Z" fill="#202020"/>
</g>
</g>
</g>
</g>
<defs>
<clipPath id="clip0_510_37">
<rect width="30" height="30" fill="white"/>
</clipPath>
</defs>
</svg>
