<svg width="13" height="13" viewBox="0 0 13 13" fill="none" xmlns="http://www.w3.org/2000/svg">
<path d="M11.6667 6.27083C11.6667 9.25085 9.25085 11.6667 6.27083 11.6667V12.5417C9.73414 12.5417 12.5417 9.73414 12.5417 6.27083H11.6667ZM6.27083 11.6667C3.2908 11.6667 0.875 9.25085 0.875 6.27083H0C0 9.73414 2.80755 12.5417 6.27083 12.5417V11.6667ZM0.875 6.27083C0.875 3.2908 3.2908 0.875 6.27083 0.875V0C2.80755 0 0 2.80755 0 6.27083H0.875ZM8.3125 7.58333C6.46007 7.58333 4.95833 6.0816 4.95833 4.22917H4.08333C4.08333 6.56489 5.97678 8.45833 8.3125 8.45833V7.58333ZM11.1856 5.96108C10.5975 6.93426 9.53062 7.58333 8.3125 7.58333V8.45833C9.84952 8.45833 11.1946 7.63811 11.9345 6.41358L11.1856 5.96108ZM4.95833 4.22917C4.95833 3.01106 5.60741 1.94413 6.58058 1.35606L6.12809 0.607162C4.90355 1.34709 4.08333 2.69214 4.08333 4.22917H4.95833ZM6.27083 0.875C6.21921 0.875 6.15866 0.851713 6.11473 0.80598C6.07752 0.767241 6.06888 0.73059 6.06684 0.715768C6.06439 0.697591 6.06562 0.644916 6.12809 0.607162L6.58058 1.35606C6.87412 1.17871 6.9685 0.853988 6.93397 0.598657C6.89815 0.333235 6.68885 0 6.27083 0V0.875ZM11.9345 6.41358C11.8967 6.47605 11.8441 6.47727 11.8259 6.47482C11.8111 6.47278 11.7744 6.46415 11.7357 6.42693C11.6899 6.38301 11.6667 6.32246 11.6667 6.27083H12.5417C12.5417 5.85282 12.2084 5.64352 11.943 5.6077C11.6877 5.57317 11.3629 5.66755 11.1856 5.96108L11.9345 6.41358Z" fill="#816A72"/>
</svg>
