<svg width="14" height="14" viewBox="0 0 14 14" fill="none" xmlns="http://www.w3.org/2000/svg">
<path d="M13.222 6.22222H11.2904C10.5127 6.91017 10.9875 7.77778 11.6665 7.77778H13.5981C14.3755 7.08983 13.901 6.22222 13.222 6.22222Z" fill="#816A72"/>
<path d="M7.45573 4.70982C6.96479 4.61223 6.45547 4.6751 6.00299 4.88915C5.55051 5.10321 5.17887 5.4571 4.94293 5.89857C4.707 6.34004 4.61929 6.84568 4.69275 7.34081C4.76621 7.83595 4.99695 8.29434 5.35089 8.64829C5.70484 9.00224 6.16323 9.23298 6.65836 9.30644C7.15349 9.3799 7.65913 9.29219 8.10059 9.05626C8.54205 8.82032 8.89594 8.44867 9.11 7.99619C9.32405 7.54371 9.38692 7.03438 9.28933 6.54343C9.19885 6.09092 8.97644 5.67532 8.65014 5.34902C8.32384 5.02271 7.90824 4.8003 7.45573 4.70982Z" fill="#816A72"/>
<path d="M6.99942 6.22213C6.76678 6.22213 6.54806 6.32513 6.39933 6.50472C6.29272 6.63345 6.17815 6.85285 6.23792 7.1679C6.29172 7.45246 6.54726 7.70778 6.83188 7.76172C6.88841 7.77241 6.94464 7.77784 6.99899 7.77784C7.2316 7.77784 7.45032 7.67487 7.59906 7.49534C7.70575 7.36656 7.82045 7.14706 7.76101 6.83297C7.707 6.5479 7.45131 6.29219 7.16655 6.23825C7.11003 6.22756 7.05377 6.22213 6.99942 6.22213ZM6.99945 4.66657C7.14869 4.66657 7.30122 4.68058 7.45577 4.70982C8.36926 4.88287 9.11631 5.62993 9.28936 6.54343C9.57123 8.03275 8.43741 9.3334 6.99898 9.3334C6.84975 9.3334 6.69721 9.31939 6.54267 9.29015C5.62957 9.1171 4.88213 8.37004 4.70946 7.45693C4.42689 5.96725 5.56097 4.66656 6.99945 4.66657Z" fill="#816A72"/>
<path d="M13.2247 6.22222H11.6637C11.2357 6.22222 10.8887 6.56923 10.8887 6.99728V7.00272C10.8887 7.43077 11.2357 7.77778 11.6637 7.77778H13.2247C13.6528 7.77778 13.9998 7.43077 13.9998 7.00272V6.99728C13.9998 6.56923 13.6528 6.22222 13.2247 6.22222Z" fill="#816A72"/>
<path d="M7.77759 13.2249V11.6639C7.77759 11.2359 7.43059 10.8889 7.00254 10.8889H6.99709C6.56905 10.8889 6.22205 11.2359 6.22205 11.6639V13.2249C6.22205 13.653 6.56905 14 6.99709 14H7.00254C7.43059 14 7.77759 13.653 7.77759 13.2249Z" fill="#816A72"/>
<path d="M7.77759 2.33606V0.775056C7.77759 0.347004 7.43059 0 7.00254 0L6.99709 0C6.56905 0 6.22205 0.347004 6.22205 0.775056V2.33606C6.22205 2.76411 6.56905 3.11111 6.99709 3.11111H7.00254C7.43059 3.11111 7.77759 2.76411 7.77759 2.33606Z" fill="#816A72"/>
<path d="M2.33603 6.22222H0.775049C0.347001 6.22222 0 6.56923 0 6.99728V7.00272C0 7.43077 0.347001 7.77778 0.775049 7.77778H2.33603C2.76408 7.77778 3.11108 7.43077 3.11108 7.00272V6.99728C3.11108 6.56923 2.76408 6.22222 2.33603 6.22222Z" fill="#816A72"/>
<path d="M11.1941 1.77012L10.3254 2.6388C10.0394 2.92477 10.0394 3.38843 10.3254 3.6744C10.6114 3.96037 11.075 3.96037 11.361 3.6744L12.2297 2.80572C12.5156 2.51975 12.5156 2.05609 12.2297 1.77012C11.9437 1.48415 11.4801 1.48415 11.1941 1.77012Z" fill="#816A72"/>
<path d="M11.3608 10.3256C11.0748 10.0397 10.6113 10.0397 10.3253 10.3256C10.0394 10.6116 10.0394 11.0752 10.3253 11.3611L11.1939 12.2296C11.4798 12.5156 11.9434 12.5156 12.2293 12.2296C12.5152 11.9437 12.5152 11.4801 12.2293 11.1942L11.3608 10.3256Z" fill="#816A72"/>
<path d="M2.80558 1.77001C2.51961 1.48403 2.05596 1.48403 1.76999 1.77001C1.48402 2.05598 1.48402 2.51963 1.76999 2.8056L2.63866 3.67428C2.92463 3.96026 3.38828 3.96026 3.67425 3.67428C3.96022 3.38831 3.96022 2.92466 3.67425 2.63869L2.80558 1.77001Z" fill="#816A72"/>
<path d="M2.63866 10.3257L1.76999 11.1944C1.48402 11.4803 1.48402 11.944 1.76999 12.2299C2.05596 12.5159 2.51961 12.5159 2.80558 12.2299L3.67425 11.3613C3.96022 11.0753 3.96022 10.6116 3.67425 10.3257C3.38828 10.0397 2.92463 10.0397 2.63866 10.3257Z" fill="#816A72"/>
</svg>
