<svg width="299" height="168" viewBox="0 0 299 168" fill="none" xmlns="http://www.w3.org/2000/svg">
<g id="main graph">
<g id="graph">
<path id="Vector 3" d="M98.5841 105.315C55.7937 109.774 3.88403 140.989 3.88403 140.989H297.103V1.2666C270.447 28.022 224.851 30.9948 195.389 63.6958C165.926 96.3967 141.374 100.856 98.5841 105.315Z" fill="url(#paint0_linear_253_8776)"/>
<path id="Vector 2" d="M3.88403 140.989C3.88403 140.989 55.7937 109.774 98.5841 105.315C141.374 100.856 165.926 96.3967 195.389 63.6958C224.851 30.9948 270.447 28.022 297.103 1.2666" stroke="#4F3E83" stroke-width="1.5"/>
<ellipse id="Ellipse 24" cx="295.116" cy="3.17551" rx="3.8837" ry="3.17551" fill="#553E95"/>
</g>
<g id="timeline">
<path id="0" d="M3.8837 161.722C3.24165 161.722 2.69478 161.547 2.24307 161.198C1.79137 160.846 1.4462 160.336 1.20756 159.668C0.968927 158.998 0.849609 158.188 0.849609 157.239C0.849609 156.296 0.968927 155.491 1.20756 154.823C1.44904 154.152 1.79563 153.641 2.24734 153.289C2.70188 152.934 3.24734 152.756 3.8837 152.756C4.52006 152.756 5.0641 152.934 5.5158 153.289C5.97035 153.641 6.31694 154.152 6.55557 154.823C6.79705 155.491 6.91779 156.296 6.91779 157.239C6.91779 158.188 6.79847 158.998 6.55984 159.668C6.3212 160.336 5.97603 160.846 5.52432 161.198C5.07262 161.547 4.52574 161.722 3.8837 161.722ZM3.8837 160.785C4.52006 160.785 5.01438 160.478 5.36665 159.864C5.71893 159.251 5.89506 158.376 5.89506 157.239C5.89506 156.483 5.8141 155.84 5.65217 155.309C5.49307 154.777 5.26296 154.373 4.96182 154.094C4.66353 153.816 4.30415 153.677 3.8837 153.677C3.25302 153.677 2.76012 153.988 2.40501 154.61C2.04989 155.229 1.87234 156.106 1.87234 157.239C1.87234 157.995 1.95188 158.637 2.11097 159.165C2.27006 159.694 2.49876 160.096 2.79705 160.371C3.09819 160.647 3.4604 160.785 3.8837 160.785Z" fill="#816A72"/>
<path id="3m" d="M88.3914 161.722C87.8289 161.722 87.3274 161.626 86.8871 161.432C86.4496 161.239 86.1016 160.971 85.8431 160.627C85.5874 160.28 85.4482 159.878 85.4255 159.421H86.4993C86.522 159.702 86.6186 159.945 86.7891 160.15C86.9595 160.351 87.1826 160.508 87.4581 160.618C87.7337 160.729 88.0391 160.785 88.3743 160.785C88.7493 160.785 89.0817 160.719 89.3715 160.589C89.6612 160.458 89.8885 160.276 90.0533 160.043C90.2181 159.81 90.3005 159.54 90.3005 159.233C90.3005 158.912 90.2209 158.63 90.0618 158.385C89.9027 158.138 89.6698 157.945 89.363 157.806C89.0561 157.667 88.6811 157.597 88.238 157.597H87.5391V156.66H88.238C88.5845 156.66 88.8885 156.597 89.1499 156.472C89.4141 156.347 89.6201 156.171 89.7678 155.944C89.9183 155.716 89.9936 155.449 89.9936 155.143C89.9936 154.847 89.9283 154.59 89.7976 154.371C89.6669 154.152 89.4823 153.982 89.2436 153.86C89.0078 153.738 88.7294 153.677 88.4084 153.677C88.1073 153.677 87.8232 153.732 87.5561 153.843C87.2919 153.951 87.076 154.108 86.9084 154.316C86.7408 154.52 86.6499 154.768 86.6357 155.057H85.613C85.63 154.6 85.7678 154.199 86.0263 153.856C86.2848 153.509 86.6229 153.239 87.0405 153.046C87.461 152.853 87.9226 152.756 88.4255 152.756C88.9652 152.756 89.4283 152.866 89.8147 153.084C90.201 153.3 90.4979 153.586 90.7053 153.941C90.9127 154.296 91.0164 154.679 91.0164 155.091C91.0164 155.583 90.8871 156.002 90.6286 156.349C90.3729 156.695 90.0249 156.935 89.5845 157.069V157.137C90.1357 157.228 90.5661 157.462 90.8757 157.84C91.1854 158.215 91.3402 158.679 91.3402 159.233C91.3402 159.708 91.211 160.134 90.9524 160.512C90.6968 160.887 90.3473 161.182 89.9041 161.398C89.461 161.614 88.9567 161.722 88.3914 161.722ZM93.3402 161.603V155.057H94.3118V156.08H94.397C94.5333 155.731 94.7535 155.459 95.0575 155.266C95.3615 155.07 95.7265 154.972 96.1527 154.972C96.5845 154.972 96.9439 155.07 97.2308 155.266C97.5206 155.459 97.7464 155.731 97.9083 156.08H97.9765C98.1441 155.742 98.3956 155.474 98.7308 155.275C99.066 155.073 99.468 154.972 99.9368 154.972C100.522 154.972 101.001 155.155 101.373 155.522C101.745 155.885 101.931 156.452 101.931 157.222V161.603H100.925V157.222C100.925 156.739 100.793 156.394 100.529 156.187C100.265 155.979 99.9538 155.876 99.5958 155.876C99.1356 155.876 98.7791 156.015 98.5262 156.293C98.2734 156.569 98.147 156.918 98.147 157.341V161.603H97.1243V157.12C97.1243 156.748 97.0035 156.448 96.762 156.221C96.5206 155.991 96.2095 155.876 95.8288 155.876C95.5674 155.876 95.3231 155.945 95.0958 156.084C94.8714 156.224 94.6896 156.417 94.5504 156.664C94.414 156.908 94.3458 157.191 94.3458 157.512V161.603H93.3402Z" fill="#816A72"/>
<path id="6m" d="M183.567 161.722C183.209 161.716 182.851 161.648 182.493 161.518C182.135 161.387 181.809 161.167 181.513 160.857C181.218 160.545 180.98 160.123 180.801 159.591C180.622 159.057 180.533 158.387 180.533 157.58C180.533 156.807 180.605 156.123 180.75 155.526C180.895 154.927 181.105 154.422 181.381 154.013C181.657 153.601 181.989 153.289 182.378 153.076C182.77 152.863 183.212 152.756 183.703 152.756C184.192 152.756 184.627 152.854 185.007 153.05C185.391 153.243 185.703 153.513 185.945 153.86C186.186 154.206 186.343 154.606 186.414 155.057H185.374C185.277 154.665 185.09 154.34 184.811 154.081C184.533 153.823 184.164 153.694 183.703 153.694C183.027 153.694 182.495 153.988 182.105 154.576C181.719 155.164 181.524 155.989 181.522 157.052H181.59C181.749 156.81 181.938 156.604 182.157 156.434C182.378 156.26 182.622 156.127 182.889 156.033C183.157 155.939 183.439 155.893 183.737 155.893C184.237 155.893 184.695 156.018 185.11 156.268C185.524 156.515 185.857 156.857 186.107 157.295C186.357 157.729 186.482 158.228 186.482 158.79C186.482 159.33 186.361 159.824 186.12 160.273C185.878 160.719 185.539 161.074 185.101 161.339C184.666 161.6 184.155 161.728 183.567 161.722ZM183.567 160.785C183.925 160.785 184.246 160.695 184.53 160.516C184.817 160.337 185.043 160.097 185.208 159.796C185.375 159.495 185.459 159.16 185.459 158.79C185.459 158.429 185.378 158.101 185.216 157.806C185.057 157.508 184.837 157.27 184.556 157.094C184.277 156.918 183.959 156.83 183.601 156.83C183.331 156.83 183.08 156.884 182.847 156.992C182.614 157.097 182.409 157.242 182.233 157.427C182.06 157.611 181.924 157.823 181.824 158.062C181.725 158.297 181.675 158.546 181.675 158.807C181.675 159.154 181.756 159.478 181.918 159.779C182.083 160.08 182.307 160.323 182.591 160.508C182.878 160.692 183.203 160.785 183.567 160.785ZM188.415 161.603V155.057H189.386V156.08H189.471C189.608 155.731 189.828 155.459 190.132 155.266C190.436 155.07 190.801 154.972 191.227 154.972C191.659 154.972 192.018 155.07 192.305 155.266C192.595 155.459 192.821 155.731 192.983 156.08H193.051C193.219 155.742 193.47 155.474 193.805 155.275C194.14 155.073 194.542 154.972 195.011 154.972C195.596 154.972 196.075 155.155 196.447 155.522C196.819 155.885 197.006 156.452 197.006 157.222V161.603H196V157.222C196 156.739 195.868 156.394 195.604 156.187C195.339 155.979 195.028 155.876 194.67 155.876C194.21 155.876 193.854 156.015 193.601 156.293C193.348 156.569 193.221 156.918 193.221 157.341V161.603H192.199V157.12C192.199 156.748 192.078 156.448 191.837 156.221C191.595 155.991 191.284 155.876 190.903 155.876C190.642 155.876 190.398 155.945 190.17 156.084C189.946 156.224 189.764 156.417 189.625 156.664C189.488 156.908 189.42 157.191 189.42 157.512V161.603H188.415Z" fill="#816A72"/>
<path id="12m" d="M270.095 153.273V162H269.038V154.381H268.987L266.856 155.795V154.722L269.038 153.273H270.095ZM272.845 162V161.233L275.725 158.08C276.064 157.71 276.342 157.389 276.561 157.116C276.779 156.841 276.941 156.582 277.047 156.341C277.154 156.097 277.208 155.841 277.208 155.574C277.208 155.267 277.135 155.001 276.987 154.777C276.842 154.553 276.643 154.379 276.39 154.257C276.137 154.135 275.853 154.074 275.538 154.074C275.203 154.074 274.91 154.143 274.66 154.283C274.413 154.419 274.221 154.611 274.085 154.858C273.951 155.105 273.885 155.395 273.885 155.727H272.879C272.879 155.216 272.997 154.767 273.233 154.381C273.468 153.994 273.789 153.693 274.196 153.477C274.605 153.261 275.064 153.153 275.572 153.153C276.083 153.153 276.537 153.261 276.931 153.477C277.326 153.693 277.636 153.984 277.86 154.351C278.085 154.717 278.197 155.125 278.197 155.574C278.197 155.895 278.139 156.209 278.022 156.516C277.909 156.82 277.71 157.159 277.426 157.534C277.145 157.906 276.754 158.361 276.254 158.898L274.294 160.994V161.062H278.35V162H272.845ZM280.367 162V155.455H281.339V156.477H281.424C281.561 156.128 281.781 155.857 282.085 155.663C282.389 155.467 282.754 155.369 283.18 155.369C283.612 155.369 283.971 155.467 284.258 155.663C284.548 155.857 284.774 156.128 284.936 156.477H285.004C285.171 156.139 285.423 155.871 285.758 155.672C286.093 155.47 286.495 155.369 286.964 155.369C287.549 155.369 288.028 155.553 288.4 155.919C288.772 156.283 288.958 156.849 288.958 157.619V162H287.953V157.619C287.953 157.136 287.821 156.791 287.556 156.584C287.292 156.376 286.981 156.273 286.623 156.273C286.163 156.273 285.806 156.412 285.554 156.69C285.301 156.966 285.174 157.315 285.174 157.739V162H284.152V157.517C284.152 157.145 284.031 156.845 283.789 156.618C283.548 156.388 283.237 156.273 282.856 156.273C282.595 156.273 282.35 156.342 282.123 156.482C281.899 156.621 281.717 156.814 281.578 157.061C281.441 157.305 281.373 157.588 281.373 157.909V162H280.367Z" fill="#816A72"/>
</g>
</g>
<defs>
<linearGradient id="paint0_linear_253_8776" x1="150" y1="-84" x2="157" y2="186" gradientUnits="userSpaceOnUse">
<stop offset="0.207652" stop-color="#F0F0FD"/>
<stop offset="0.873967" stop-color="white"/>
</linearGradient>
</defs>
</svg>
