<svg width="30" height="30" viewBox="0 0 30 30" fill="none" xmlns="http://www.w3.org/2000/svg">
<g id="mic">
<path id="Vector" d="M10 6.25C10 3.48857 12.2386 1.25 15 1.25C17.7614 1.25 20 3.48857 20 6.25V15C20 17.7614 17.7614 20 15 20C12.2386 20 10 17.7614 10 15V6.25Z" fill="#202020"/>
<path id="Vector_2" d="M7.8125 14.8047V14.9999C7.8125 16.9062 8.56975 18.7343 9.91768 20.0823C11.2656 21.4302 13.0938 22.1874 15 22.1874C16.9062 22.1874 18.7344 21.4302 20.0824 20.0823C21.4303 18.7343 22.1875 16.9062 22.1875 14.9999V14.8047C22.1875 14.1143 22.7471 13.5547 23.4375 13.5547H24.0625C24.7529 13.5547 25.3125 14.1143 25.3125 14.8046V14.9999C25.3125 17.7349 24.226 20.3581 22.292 22.2919C20.7302 23.8538 18.7191 24.8628 16.5625 25.1934V27.4999C16.5625 28.1903 16.0029 28.7499 15.3125 28.7499H14.6875C13.9971 28.7499 13.4375 28.1903 13.4375 27.4999V25.1934C11.2809 24.8628 9.26974 23.8538 7.70796 22.2919C5.77399 20.3581 4.6875 17.7349 4.6875 14.9999V14.8047C4.6875 14.1143 5.24715 13.5547 5.9375 13.5547H6.5625C7.25285 13.5547 7.8125 14.1143 7.8125 14.8047Z" fill="#202020"/>
</g>
</svg>
