<svg width="120" height="107" viewBox="0 0 120 107" fill="none" xmlns="http://www.w3.org/2000/svg">
<g id="quotation-right-mark">
<g id="Group">
<path id="Vector" d="M68.3328 98.835V80.9817C68.3328 78.5592 70.5349 76.5972 73.25 76.5972C82.9382 76.5972 88.2088 67.7375 88.9404 50.2482H73.25C70.5353 50.2482 68.3328 48.2834 68.3328 45.8638V8.16557C68.3328 5.74404 70.5349 3.782 73.25 3.782H115.082C117.797 3.782 120 5.74619 120 8.16557V45.8641C120 54.2471 119.051 61.9399 117.188 68.734C115.274 75.6987 112.335 81.7878 108.457 86.8338C104.468 92.0192 99.4736 96.0883 93.6217 98.9221C87.7255 101.774 80.8716 103.221 73.2479 103.221C70.5353 103.219 68.3328 101.256 68.3328 98.835ZM4.91615 76.5956C2.20146 76.5956 0 78.5592 0 80.9783V98.8353C0 101.256 2.20146 103.218 4.91615 103.218C12.536 103.218 19.3934 101.77 25.2858 98.9187C31.1408 96.0852 36.1343 92.0195 40.123 86.8304C44.004 81.7844 46.9418 75.6951 48.8559 68.7269C50.7201 61.9329 51.6672 54.2398 51.6672 45.8604V8.16189C51.6672 5.74037 49.4637 3.77832 46.75 3.77832H4.91615C2.20146 3.77832 0 5.74221 0 8.16189V45.8604C0 48.2816 2.20146 50.2449 4.91615 50.2449H20.3862C19.6636 67.7356 14.469 76.5956 4.91615 76.5956Z" fill="#202020"/>
</g>
</g>
</svg>
