<svg width="120" height="107" viewBox="0 0 120 107" fill="none" xmlns="http://www.w3.org/2000/svg">
<g id="quotation-left-mark">
<g id="Group">
<path id="Vector" d="M51.6672 8.16384V26.0187C51.6672 28.4403 49.4657 30.4023 46.75 30.4023C37.0607 30.4023 31.7901 39.2635 31.0596 56.7527H46.75C49.4657 56.7527 51.6672 58.7166 51.6672 61.1372V98.837C51.6672 101.257 49.4657 103.22 46.75 103.22H4.91615C2.19939 103.22 0 101.256 0 98.837V61.1372C0 52.7533 0.946722 45.0596 2.81301 38.2673C4.72708 31.3029 7.66522 25.2135 11.5432 20.1678C15.5336 14.9824 20.525 10.9133 26.38 8.07863C32.2745 5.22675 39.1291 3.78027 46.7517 3.78027C49.4657 3.78027 51.6672 5.74232 51.6672 8.16384ZM115.082 30.4026C117.797 30.4026 120 28.4387 120 26.019V8.16415C120 5.74263 117.797 3.78058 115.082 3.78058C107.463 3.78058 100.607 5.22736 94.7149 8.07893C88.8589 10.9136 83.8647 14.9827 79.8736 20.1682C75.997 25.2138 73.0589 31.3035 71.1444 38.2695C69.2792 45.0638 68.3325 52.7575 68.3325 61.1375V98.8373C68.3325 101.258 70.5346 103.22 73.2496 103.22H115.082C117.796 103.22 119.998 101.256 119.998 98.8373V61.1372C119.998 58.7169 117.797 56.7527 115.082 56.7527H99.6156C100.335 39.2638 105.529 30.4026 115.082 30.4026Z" fill="#202020"/>
</g>
</g>
</svg>
