<svg width="12" height="12" viewBox="0 0 12 12" fill="none" xmlns="http://www.w3.org/2000/svg">
<g id="right tick">
<path id="Vector" d="M6 0C2.694 0 0 2.694 0 6C0 9.306 2.694 12 6 12C9.306 12 12 9.306 12 6C12 2.694 9.306 0 6 0ZM8.868 4.62L5.466 8.022C5.382 8.106 5.268 8.154 5.148 8.154C5.028 8.154 4.914 8.106 4.83 8.022L3.132 6.324C2.958 6.15 2.958 5.862 3.132 5.688C3.306 5.514 3.594 5.514 3.768 5.688L5.148 7.068L8.232 3.984C8.406 3.81 8.694 3.81 8.868 3.984C9.042 4.158 9.042 4.44 8.868 4.62Z" fill="#4F3E83"/>
</g>
</svg>
