<svg width="30" height="30" viewBox="0 0 30 30" fill="none" xmlns="http://www.w3.org/2000/svg">
<g id="studio-svgrepo-com 2" clip-path="url(#clip0_510_31)">
<path id="Vector" fill-rule="evenodd" clip-rule="evenodd" d="M27.1896 0C27.6968 0 28.108 0.411172 28.108 0.918375V18.5057C28.108 19.0129 27.6968 19.424 27.1896 19.424H23.3571V22.5462C23.3571 22.7681 23.537 22.948 23.7589 22.948H24.7193C25.0845 21.9217 26.0646 21.1869 27.2163 21.1869C28.6797 21.1869 29.866 22.3732 29.866 23.8366C29.866 25.3 28.6797 26.4863 27.2163 26.4863C26.0551 26.4863 25.0684 25.7394 24.7104 24.6998L23.7869 24.7006C22.5818 24.7006 21.6052 23.7241 21.6052 22.5195L21.6057 19.424H19.6775V24.8487C20.7106 25.2103 21.4516 26.1938 21.4516 27.3503C21.4516 28.8137 20.2653 30 18.8019 30C17.3385 30 16.1522 28.8137 16.1522 27.3503C16.1522 26.1938 16.8931 25.2103 17.9262 24.8487V19.424H12.2221V24.8487C13.2552 25.2103 13.9961 26.1938 13.9961 27.3503C13.9961 28.8137 12.8098 30 11.3464 30C9.88303 30 8.69672 28.8137 8.69672 27.3503C8.69672 26.1938 9.43766 25.2103 10.4707 24.8487V19.424H8.5415L8.54202 22.5195C8.54202 23.7241 7.5655 24.7006 6.36089 24.7006L5.43689 24.6998C5.07886 25.7394 4.09214 26.4863 2.93095 26.4863C1.46756 26.4863 0.28125 25.3 0.28125 23.8366C0.28125 22.3732 1.46756 21.1869 2.93095 21.1869C4.08262 21.1869 5.06269 21.9217 5.42797 22.948H6.38833C6.61022 22.948 6.79011 22.7681 6.79011 22.5462V19.424H2.9393C2.43209 19.424 2.02092 19.0129 2.02092 18.5057V0.918375C2.02092 0.411172 2.43209 0 2.9393 0H27.1896ZM18.823 26.4811C18.3429 26.4811 17.9538 26.8702 17.9538 27.3503C17.9538 27.8303 18.3429 28.2195 18.823 28.2195C19.303 28.2195 19.6922 27.8303 19.6922 27.3503C19.6922 26.8702 19.303 26.4811 18.823 26.4811ZM11.3675 26.4811C10.8875 26.4811 10.4983 26.8702 10.4983 27.3503C10.4983 27.8303 10.8875 28.2195 11.3675 28.2195C11.8476 28.2195 12.2367 27.8303 12.2367 27.3503C12.2367 26.8702 11.8476 26.4811 11.3675 26.4811ZM27.2374 22.9674C26.7573 22.9674 26.3682 23.3566 26.3682 23.8366C26.3682 24.3167 26.7573 24.7058 27.2374 24.7058C27.7174 24.7058 28.1066 24.3167 28.1066 23.8366C28.1066 23.3566 27.7174 22.9674 27.2374 22.9674ZM2.90983 22.9674C2.42978 22.9674 2.04063 23.3566 2.04063 23.8366C2.04063 24.3167 2.42978 24.7058 2.90984 24.7058C3.38987 24.7058 3.77903 24.3167 3.77903 23.8366C3.77903 23.3566 3.38988 22.9674 2.90983 22.9674ZM26.4407 16.25H3.68823V17.2984C3.68823 17.552 3.89381 17.7576 4.14742 17.7576H25.9815C26.2351 17.7576 26.4407 17.552 26.4407 17.2984V16.25ZM25.9815 1.66667H4.14741C3.89381 1.66667 3.68823 1.87225 3.68823 2.12584V14.5833H26.4407V2.12584C26.4407 1.87225 26.2351 1.66667 25.9815 1.66667ZM14.157 5.44789L17.595 7.5072C17.7905 7.65044 17.9062 7.88028 17.9062 8.125C17.9062 8.36972 17.7905 8.59956 17.595 8.7428L14.157 10.8021C14.0433 10.8689 13.9138 10.9042 13.782 10.9042C13.6501 10.9042 13.5206 10.8691 13.4069 10.8023C13.1747 10.6664 13.0316 10.4152 13.0312 10.1431V6.10687C13.0316 5.83481 13.1747 5.58356 13.4069 5.44766C13.5206 5.38092 13.6501 5.34576 13.782 5.3458C13.9138 5.34584 14.0433 5.38109 14.157 5.44789Z" fill="#202020"/>
</g>
<defs>
<clipPath id="clip0_510_31">
<rect width="30" height="30" fill="white"/>
</clipPath>
</defs>
</svg>
