<svg width="18" height="18" viewBox="0 0 18 18" fill="none" xmlns="http://www.w3.org/2000/svg">
<g id="work ">
<path id="Vector" d="M7.7251 0.799561H6.14176C2.18343 0.799561 0.600098 2.38289 0.600098 6.34123V11.0912C0.600098 15.0496 2.18343 16.6329 6.14176 16.6329H10.8918C14.8501 16.6329 16.4334 15.0496 16.4334 11.0912V9.50789" stroke="#050316" stroke-width="1.2" stroke-linecap="round" stroke-linejoin="round"/>
<path id="Vector_2" d="M11.7151 1.60649L5.47675 7.84484C5.23925 8.08234 5.00175 8.54942 4.95425 8.88984L4.61383 11.2728C4.48717 12.1357 5.09675 12.7373 5.95967 12.6186L8.34258 12.2782C8.67508 12.2307 9.14217 11.9932 9.38758 11.7557L15.6259 5.51732C16.7026 4.44065 17.2092 3.18982 15.6259 1.60649C14.0426 0.0231541 12.7918 0.529821 11.7151 1.60649Z" stroke="#050316" stroke-width="1.2" stroke-miterlimit="10" stroke-linecap="round" stroke-linejoin="round"/>
<path id="Vector_3" d="M10.8206 2.50195C11.351 4.39404 12.8314 5.87445 14.7314 6.41279" stroke="#050316" stroke-width="1.2" stroke-miterlimit="10" stroke-linecap="round" stroke-linejoin="round"/>
</g>
</svg>
